<?xml version="1.0" standalone="no"?>
<!DOCTYPE svg PUBLIC "-//W3C//DTD SVG 20010904//EN"
 "http://www.w3.org/TR/2001/REC-SVG-20010904/DTD/svg10.dtd">
<svg version="1.0" xmlns="http://www.w3.org/2000/svg"
 width="300.000000pt" height="300.000000pt" viewBox="0 0 300.000000 300.000000"
 preserveAspectRatio="xMidYMid meet">
<metadata>
Created by potrace 1.11, written by Peter Selinger 2001-2013
</metadata>
<g transform="translate(0.000000,300.000000) scale(0.100000,-0.100000)"
fill="#000000" stroke="none">
<path d="M1075 2991 c-3 -5 -2 -12 3 -15 5 -3 9 1 9 9 0 17 -3 19 -12 6z"/>
<path d="M1143 2987 c-3 -4 -2 -11 1 -14 3 -3 0 -13 -7 -21 -9 -13 -9 -14 1
-8 7 4 12 2 12 -6 1 -7 7 -2 16 12 14 23 14 23 9 3 -7 -24 8 -32 21 -11 5 7 3
8 -6 3 -9 -5 -11 -4 -6 3 18 30 14 48 -11 48 -13 0 -27 -4 -30 -9z m41 -8 c3
-3 -4 -5 -14 -6 -11 -1 -20 2 -20 7 0 8 25 8 34 -1z"/>
<path d="M1209 2981 c-1 -9 -2 -25 -2 -37 0 -18 -6 -20 -76 -21 -150 -2 -189
-6 -183 -23 4 -12 1 -11 -15 3 -27 24 -30 22 -30 -20 0 -21 2 -32 5 -25 2 6 7
10 12 7 5 -3 18 7 29 21 12 15 21 23 22 18 7 -61 7 -60 -30 -60 -20 -1 -72 -3
-116 -5 l-81 -4 0 -31 0 -32 33 16 c23 11 29 18 21 24 -18 11 -30 10 -23 -2 4
-6 -1 -7 -11 -3 -15 5 -15 7 0 15 22 13 51 -6 53 -34 0 -13 -1 -17 -4 -10 -3
6 -9 12 -14 12 -6 0 -7 -4 -4 -10 3 -5 3 -10 -2 -11 -4 0 -19 -2 -33 -5 -14
-2 -42 -4 -62 -4 -37 -1 -38 -2 -38 -41 0 -38 -1 -40 -32 -39 -63 1 -68 -1
-56 -24 8 -15 8 -21 -1 -24 -6 -2 -9 -7 -6 -11 2 -4 -8 -7 -23 -6 -33 2 -54
-4 -47 -15 2 -4 -7 -7 -20 -7 -14 0 -25 4 -25 9 0 5 -5 6 -11 2 -8 -5 -6 -10
5 -16 9 -5 20 -7 25 -4 13 8 32 -19 26 -36 -4 -9 -17 -14 -33 -13 -34 2 -53
-4 -46 -16 3 -5 1 -9 -5 -9 -5 0 -11 6 -14 13 -3 6 -5 -1 -5 -18 1 -46 -1 -55
-11 -55 -5 0 -8 18 -6 40 4 45 3 46 -16 23 -8 -10 -9 -14 -2 -10 8 5 11 0 10
-13 -1 -11 -4 -20 -7 -20 -3 0 -7 -12 -8 -26 -1 -15 -8 -34 -15 -42 -9 -13 -9
-14 1 -8 7 4 12 1 12 -8 0 -12 -10 -16 -40 -16 l-40 0 -1 -42 c-1 -24 -1 -46
0 -50 0 -5 -4 -8 -10 -8 -6 0 -7 -5 -2 -12 10 -17 13 -38 5 -37 -4 1 -9 0 -12
-1 -20 -7 -41 -7 -47 2 -3 7 -1 8 5 4 8 -5 10 -1 5 10 -5 13 -3 16 10 11 9 -3
19 -2 22 3 6 9 -8 14 -27 11 -4 0 -6 5 -4 12 1 6 1 9 -1 4 -3 -4 -8 -5 -12 -3
-3 2 -7 -12 -7 -32 -1 -21 -3 -71 -5 -112 -4 -73 -5 -75 -30 -76 -20 -1 -26 3
-24 15 2 9 4 18 4 20 1 3 7 -3 14 -13 12 -16 14 -16 14 -2 0 9 -4 16 -9 16 -4
0 -8 5 -8 11 0 8 5 8 15 -1 10 -9 15 -9 15 -1 0 6 -5 11 -11 11 -5 0 -8 4 -5
8 7 11 -40 9 -51 -2 -4 -4 -2 -6 6 -4 7 2 16 -3 18 -10 3 -8 -2 -10 -14 -6
-15 5 -15 4 -3 -5 13 -9 13 -11 0 -11 -12 0 -12 -2 -1 -9 9 -6 10 -11 2 -15
-7 -4 -11 -39 -11 -87 0 -52 -4 -79 -11 -79 -8 0 -8 -5 1 -15 8 -10 9 -15 2
-15 -6 0 -16 8 -21 18 -6 9 -11 11 -11 5 0 -7 -5 -13 -11 -13 -5 0 -8 4 -5 8
3 5 -1 9 -9 9 -11 0 -12 -4 -4 -13 7 -8 6 -14 -3 -17 -11 -4 -10 -6 0 -6 7 -1
10 -6 7 -11 -3 -6 -1 -10 5 -10 7 0 9 7 6 16 -4 10 -2 14 6 11 7 -2 12 -10 10
-16 -1 -6 2 -11 8 -11 5 0 10 5 10 10 0 18 16 11 17 -8 1 -14 -5 -17 -37 -14
l-38 4 -1 -161 c-2 -148 0 -161 16 -162 15 0 16 -1 2 -7 -22 -10 -23 -83 0
-80 9 2 19 7 23 13 5 6 12 5 20 -4 11 -11 11 -13 -1 -6 -10 6 -12 4 -6 -5 5
-8 4 -11 -2 -7 -23 14 -24 -27 -1 -46 l23 -19 -25 15 c-17 10 -24 23 -23 39 1
12 -1 17 -3 10 -3 -6 -9 -10 -13 -8 -4 3 -8 -1 -8 -9 0 -8 5 -15 10 -15 5 0 4
-7 -3 -15 -10 -12 -8 -14 9 -10 12 2 21 -1 21 -6 0 -6 5 -7 10 -4 6 3 10 1 10
-6 0 -18 10 -5 15 20 2 12 0 19 -6 16 -11 -7 -12 8 -2 19 12 12 11 60 -1 75
-8 11 -8 13 1 7 8 -4 13 -1 13 9 0 10 -5 13 -12 9 -8 -5 -8 -1 1 10 12 14 13
21 2 38 -7 11 -8 17 -2 13 8 -4 11 16 11 61 0 50 5 73 18 88 13 17 14 18 1 8
-14 -10 -17 -9 -22 8 -3 13 1 24 14 30 10 6 19 7 19 3 0 -4 11 -8 25 -8 14 0
25 3 25 8 0 6 -14 11 -31 9 -3 -1 -6 5 -6 13 0 10 5 11 17 5 12 -6 16 -4 17
13 1 12 -3 25 -10 29 -9 6 -9 8 1 8 7 0 12 15 12 41 0 36 2 41 20 36 11 -3 18
-1 14 4 -3 5 -12 9 -20 9 -8 0 -14 5 -14 10 0 6 6 10 14 10 20 0 29 17 15 26
-8 5 -9 3 -4 -6 5 -8 3 -11 -4 -9 -25 9 -15 24 17 26 19 1 35 3 38 5 2 2 5 38
6 80 l3 75 35 -1 c34 -1 35 0 38 42 3 40 5 42 36 42 31 0 33 2 34 36 2 45 2
46 47 46 36 0 37 1 33 34 -3 25 1 39 16 52 11 9 16 11 12 5 -5 -9 2 -13 23
-13 29 0 31 2 31 40 l0 40 40 0 40 0 0 40 0 40 48 2 c26 0 59 1 74 1 15 0 25
3 22 8 -2 4 -10 6 -18 3 -7 -3 -13 2 -13 11 0 18 2 18 26 6 13 -7 18 -6 18 4
0 7 -7 11 -15 7 -9 -3 -13 -1 -9 5 4 6 -4 11 -19 11 -14 0 -22 -3 -18 -7 14
-10 14 -29 0 -34 -11 -4 -14 17 -7 53 1 3 14 6 31 6 16 1 27 -2 24 -7 -3 -5
-1 -9 5 -9 5 0 11 5 13 11 2 6 20 11 41 11 35 0 37 2 37 32 l0 32 83 3 c45 2
99 4 119 4 21 0 39 6 42 14 7 16 -6 17 -23 1 -10 -10 -15 -10 -18 -1 -2 7 -10
10 -17 7 -15 -6 -30 22 -20 37 3 6 15 7 26 3 16 -5 19 -3 12 7 -6 12 -5 12 8
1 11 -9 18 -10 23 -2 3 5 15 10 26 10 13 0 18 -4 13 -12 -5 -7 -3 -8 7 -2 20
12 31 13 141 15 71 1 96 4 91 13 -4 7 -1 6 9 -2 22 -17 174 -12 170 6 -1 8 2
11 8 7 6 -3 8 -11 5 -16 -4 -5 12 -9 35 -9 30 0 39 3 34 13 -6 9 -5 9 7 0 9
-8 68 -13 166 -14 l152 -3 -1 -28 c-1 -16 -6 -31 -11 -35 -6 -3 -7 -1 -3 5 4
7 2 12 -5 12 -10 0 -10 3 -1 12 7 7 12 17 12 23 0 5 -5 3 -10 -5 -5 -8 -10
-10 -10 -5 0 17 -37 15 -52 -2 -10 -13 -10 -17 0 -20 6 -3 10 -9 6 -14 -3 -5
-2 -9 3 -10 29 -3 126 -8 171 -9 28 -1 55 -6 58 -11 3 -5 10 -7 15 -4 5 3 6
-1 3 -9 -3 -9 -10 -14 -14 -11 -5 3 -6 -4 -3 -15 5 -19 22 -22 132 -20 31 1
33 -1 29 -25 -3 -14 -1 -28 4 -31 4 -3 6 -10 3 -15 -4 -5 11 -9 33 -9 43 0 52
-11 48 -53 -3 -22 0 -25 26 -23 16 1 34 9 40 17 8 11 9 11 4 -3 -3 -10 -1 -18
5 -18 6 0 8 -7 5 -16 -3 -9 -2 -12 5 -9 13 9 8 -27 -6 -38 -6 -5 -4 -7 5 -4 8
2 14 10 12 17 -2 7 3 10 11 7 8 -3 20 -1 28 5 11 8 11 9 -3 5 -18 -6 -45 19
-33 31 4 4 10 1 12 -5 3 -7 9 -13 14 -13 6 0 7 5 4 10 -3 6 -1 10 4 10 6 0 12
-3 12 -7 7 -42 7 -66 1 -56 -5 8 -13 7 -27 -4 -20 -15 -20 -15 0 -9 21 6 47
-5 46 -20 0 -5 11 -8 25 -8 14 1 23 -3 21 -10 -2 -6 -12 -10 -22 -8 -13 3 -16
-1 -11 -13 5 -13 2 -16 -9 -11 -9 3 -13 2 -10 -4 7 -12 50 -7 50 6 0 5 4 14 8
21 4 6 4 19 0 30 -3 10 -2 14 2 10 5 -4 9 -24 10 -45 0 -35 2 -37 34 -37 30 0
35 -4 38 -27 2 -14 -1 -29 -5 -32 -5 -3 -9 4 -8 17 1 17 -4 22 -21 21 -14 -1
-20 3 -16 10 3 6 2 7 -2 3 -11 -10 -16 -39 -5 -32 4 3 11 -2 14 -11 5 -12 2
-15 -9 -10 -9 3 -13 2 -10 -4 3 -5 19 -7 35 -5 29 3 30 3 30 -41 l0 -44 40 0
c30 0 40 4 40 16 0 9 5 12 13 8 9 -6 9 -5 0 7 -6 8 -13 40 -14 72 l-2 57 -39
0 -38 0 0 49 c0 28 -5 53 -11 57 -8 5 -8 9 1 14 10 6 10 12 0 26 -11 18 -11
18 -6 -1 6 -20 6 -20 -9 -1 -8 11 -16 15 -16 8 -2 -21 -4 -27 -13 -41 -6 -9
-5 -12 2 -7 6 3 13 2 17 -4 4 -6 12 -7 18 -4 7 4 8 3 4 -2 -5 -5 -19 -9 -31
-9 -23 -1 -23 1 -27 111 0 28 -5 41 -15 41 -8 0 -14 -7 -14 -14 0 -8 5 -11 12
-7 7 4 8 3 4 -5 -9 -15 -26 -5 -26 16 0 10 -6 14 -20 10 -21 -5 -23 -1 -20 51
1 19 -3 32 -10 32 -7 0 -10 -7 -6 -17 6 -17 5 -17 -8 0 -14 18 -31 24 -21 6 4
-6 -2 -5 -14 3 -14 8 -21 23 -21 43 0 27 -4 31 -31 33 -20 2 -28 -1 -23 -9 3
-6 -5 -3 -20 6 -14 10 -26 13 -26 9 0 -5 -5 -2 -10 6 -6 10 -10 11 -10 3 0 -7
-5 -13 -11 -13 -5 0 -7 5 -4 10 3 6 2 10 -4 10 -5 0 -12 -6 -14 -12 -3 -7 -4
6 -3 30 l2 42 -43 0 c-45 0 -46 2 -45 53 1 26 -1 27 -61 28 -34 1 -72 0 -84 0
-19 -2 -20 1 -13 33 4 20 5 36 1 37 -22 3 -120 9 -186 12 -51 3 -80 9 -86 18
-8 13 -13 6 -10 -13 0 -4 -5 -5 -13 -2 -8 3 -13 18 -12 34 0 15 4 26 9 23 4
-2 4 -9 1 -15 -4 -7 -2 -8 4 -4 6 4 9 13 6 21 -5 12 -54 14 -295 13 -260 0
-289 -2 -290 -17z m81 -20 c0 -6 -5 -13 -12 -17 -6 -4 -8 -3 -4 4 3 5 0 13 -6
15 -8 3 -6 6 5 6 9 1 17 -3 17 -8z m-59 -24 c-10 -9 -11 -8 -5 6 3 10 9 15 12
12 3 -3 0 -11 -7 -18z m-295 -54 c-10 -11 -19 -7 -22 10 -2 15 0 16 12 6 8 -6
12 -14 10 -16z m1089 17 c-3 -5 -12 -10 -18 -10 -7 0 -6 4 3 10 19 12 23 12
15 0z m10 -20 c-10 -11 -22 -20 -28 -20 -5 0 1 9 14 20 31 25 37 25 14 0z m31
-16 c-3 -8 -10 -13 -15 -10 -5 4 -12 1 -14 -4 -3 -6 -4 -5 -2 2 1 7 8 12 14
11 6 -2 11 7 12 20 0 12 3 16 6 9 3 -7 2 -20 -1 -28z m-496 -28 c0 -2 -8 -10
-17 -17 -16 -13 -17 -12 -4 4 13 16 21 21 21 13z m37 -13 c-4 -3 -1 -13 6 -22
11 -14 10 -14 -5 -2 -16 12 -16 31 -1 31 4 0 3 -3 0 -7z m83 3 c0 -2 -7 -7
-16 -10 -8 -3 -12 -2 -9 4 6 10 25 14 25 6z m-220 -10 c0 -2 -8 -10 -17 -17
-16 -13 -17 -12 -4 4 13 16 21 21 21 13z m21 -19 c-6 -8 -9 -16 -6 -19 3 -2
-2 -5 -10 -5 -13 0 -13 3 2 19 19 21 31 25 14 5z m39 -11 c0 -2 -7 -7 -16 -10
-8 -3 -12 -2 -9 4 6 10 25 14 25 6z m40 -8 c0 -4 -4 -8 -9 -8 -6 0 -12 4 -15
8 -3 5 1 9 9 9 8 0 15 -4 15 -9z m388 -47 c17 -10 17 -22 1 -32 -8 -4 -18 -1
-25 9 -19 26 -4 41 24 23z m229 -96 c0 -8 -4 -12 -9 -9 -5 3 -6 10 -3 15 9 13
12 11 12 -6z m253 5 c-8 -5 -19 -10 -25 -10 -5 0 -3 5 5 10 8 5 20 10 25 10 6
0 3 -5 -5 -10z m27 -15 c0 -8 -4 -12 -9 -9 -5 3 -6 10 -3 15 9 13 12 11 12 -6z
m-10 -125 c0 -27 -2 -28 -14 -12 -13 16 -14 15 -10 -6 3 -12 1 -20 -4 -16 -17
10 -3 42 27 63 0 1 1 -12 1 -29z m-2045 -36 c-8 -14 -9 -13 -9 10 0 18 3 24 9
18 7 -7 7 -16 0 -28z m2274 -60 c1 -9 0 -13 -4 -10 -3 4 -7 14 -8 22 -1 9 0
13 4 10 3 -4 7 -14 8 -22z m1 -161 c0 -7 -4 -13 -8 -13 -4 0 -9 6 -12 13 -3 8
0 14 7 14 7 0 13 -6 13 -14z m-2627 -437 c0 -3 -4 -8 -10 -11 -5 -3 -10 -1
-10 4 0 6 5 11 10 11 6 0 10 -2 10 -4z m120 -12 c0 -2 -9 -4 -20 -4 -11 0 -20
4 -20 9 0 5 9 7 20 4 11 -3 20 -7 20 -9z m-76 -14 c-6 -6 -15 -5 -24 1 -13 9
-12 10 3 5 9 -3 17 0 17 6 0 6 3 8 7 5 4 -4 2 -12 -3 -17z m34 -15 c-3 -3 -9
2 -12 12 -6 14 -5 15 5 6 7 -7 10 -15 7 -18z m-87 -12 c-12 -20 -14 -14 -5 12
4 9 9 14 11 11 3 -2 0 -13 -6 -23z m3 -309 c3 -8 2 -12 -4 -9 -6 3 -10 10 -10
16 0 14 7 11 14 -7z m36 -59 c-7 -9 -15 -13 -19 -10 -3 3 1 10 9 15 21 14 24
12 10 -5z"/>
<path d="M1806 2988 c3 -5 -2 -19 -12 -31 -10 -12 -12 -17 -5 -10 15 13 44 6
35 -8 -3 -5 2 -6 10 -3 9 3 16 14 16 23 0 14 -2 14 -11 1 -9 -13 -10 -13 -6 0
2 8 12 14 21 14 9 -1 16 2 16 7 0 5 -8 9 -17 10 -10 0 -26 2 -36 4 -9 2 -14
-1 -11 -7z"/>
<path d="M1876 2938 c3 -5 10 -6 15 -3 13 9 11 12 -6 12 -8 0 -12 -4 -9 -9z"/>
<path d="M946 2871 c-17 -19 -17 -19 0 -17 9 2 18 10 20 19 3 21 1 21 -20 -2z"/>
<path d="M606 2742 c-3 -5 1 -9 9 -9 8 0 12 4 9 9 -3 4 -7 8 -9 8 -2 0 -6 -4
-9 -8z"/>
<path d="M1866 2742 c-3 -5 1 -9 9 -9 8 0 12 4 9 9 -3 4 -7 8 -9 8 -2 0 -6 -4
-9 -8z"/>
<path d="M2365 2740 c-3 -5 -1 -10 4 -10 6 0 11 5 11 10 0 6 -2 10 -4 10 -3 0
-8 -4 -11 -10z"/>
<path d="M1073 2725 c2 -5 8 -10 13 -10 5 0 14 -4 20 -7 6 -4 19 1 28 10 15
17 14 18 -24 18 -24 0 -39 -4 -37 -11z"/>
<path d="M2332 2728 c2 -6 10 -13 16 -14 7 -1 8 0 2 3 -5 2 -8 9 -4 14 3 5 0
9 -6 9 -7 0 -10 -5 -8 -12z"/>
<path d="M1174 2718 c-4 -7 -4 -10 1 -6 4 4 15 2 24 -5 14 -11 14 -10 2 6 -16
20 -18 21 -27 5z"/>
<path d="M2377 2709 c7 -7 15 -10 18 -7 3 3 -2 9 -12 12 -14 6 -15 5 -6 -5z"/>
<path d="M526 2664 c-3 -8 -10 -13 -14 -10 -5 3 -9 -1 -9 -9 0 -8 4 -12 8 -9
4 2 9 1 12 -3 2 -5 2 -2 1 4 -2 7 4 16 13 21 9 6 12 12 5 16 -5 3 -13 -1 -16
-10z"/>
<path d="M1299 2676 c-1 -1 -3 -11 -4 -23 -4 -36 -14 -53 -28 -47 -8 3 -17 -2
-20 -10 -4 -9 -3 -15 1 -15 4 1 9 0 12 -1 3 -1 17 -3 32 -4 20 -2 25 2 23 16
-2 10 0 18 6 18 8 0 13 -14 11 -32 -1 -3 5 -8 12 -11 15 -6 16 9 3 30 -5 7 1
16 13 23 14 8 19 17 15 28 -3 9 -3 13 1 9 4 -4 13 -2 21 4 10 9 13 8 13 0 0
-7 5 -9 11 -6 17 11 0 20 -41 20 -27 1 -36 -3 -33 -12 3 -8 0 -13 -8 -11 -8 2
-13 -4 -13 -14 1 -9 -5 -19 -12 -22 -17 -7 -18 2 0 35 11 22 11 26 0 26 -8 0
-15 -1 -15 -1z m71 -38 c0 -6 -3 -8 -7 -5 -3 4 -11 0 -17 -9 -10 -13 -12 -13
-13 3 -1 12 6 19 18 20 10 1 19 -3 19 -9z m-75 -50 c-11 -7 -21 -6 -28 2 -9 8
-8 10 6 5 10 -4 17 -2 17 5 0 6 5 8 11 4 8 -5 6 -10 -6 -16z"/>
<path d="M1434 2671 c7 -10 -18 -34 -26 -25 -3 3 -17 -6 -31 -20 -15 -14 -21
-26 -16 -26 6 0 9 -6 6 -12 -2 -7 0 -21 5 -31 8 -16 7 -17 -10 -8 -11 6 -22 7
-26 4 -3 -3 -6 0 -6 7 0 9 -5 7 -15 -6 -14 -18 -15 -18 -9 0 6 15 3 17 -14 12
-11 -4 -23 -2 -26 3 -4 6 -14 7 -22 4 -13 -5 -15 -1 -10 14 6 17 2 21 -21 21
-37 0 -46 -7 -33 -23 14 -17 4 -36 -17 -33 -9 2 -18 -2 -19 -7 -3 -6 23 -10
65 -10 38 0 67 3 65 6 -2 4 3 9 11 12 9 4 12 1 8 -9 -6 -17 8 -19 25 -2 7 7
12 8 12 2 0 -5 33 -10 74 -10 41 0 73 3 71 6 -2 4 2 7 10 7 8 0 12 -4 9 -9 -3
-4 40 -8 95 -8 74 0 101 -3 102 -12 1 -7 1 -24 1 -38 1 -25 3 -26 76 -28 41
-1 77 -4 80 -7 3 -3 5 -21 4 -40 -1 -21 3 -33 8 -30 6 3 10 13 10 21 0 8 5 14
10 14 7 0 7 -6 0 -20 -8 -16 -8 -20 4 -20 8 0 20 8 26 18 11 16 11 16 6 0 -6
-18 -1 -20 57 -20 19 -1 27 -6 27 -19 0 -9 -5 -19 -12 -21 -6 -2 -12 -12 -14
-21 -1 -9 2 -15 7 -11 5 3 7 10 4 15 -4 5 -1 9 4 9 6 0 11 -7 11 -15 0 -8 5
-15 11 -15 5 0 7 -4 4 -10 -3 -5 -1 -10 4 -10 6 0 11 5 11 10 0 6 11 10 25 10
23 0 25 -4 25 -40 0 -42 4 -45 58 -40 18 1 22 -4 22 -25 0 -17 -4 -24 -11 -19
-6 3 -4 -4 4 -17 8 -13 14 -40 12 -60 -2 -36 6 -42 32 -26 6 4 13 2 15 -5 3
-9 6 -9 12 0 4 7 2 12 -5 12 -8 0 -8 4 1 15 7 8 9 16 4 16 -5 1 -15 2 -23 3
-8 0 -15 7 -17 14 -1 7 0 8 3 2 2 -5 9 -10 14 -10 6 0 7 5 4 11 -4 6 2 5 14
-3 13 -8 20 -22 19 -38 0 -14 0 -44 1 -67 1 -38 4 -42 29 -45 16 -2 26 -8 24
-16 -1 -8 2 -11 8 -7 6 3 8 10 5 15 -3 5 -1 11 3 14 5 3 10 -32 11 -77 2 -45
3 -99 4 -119 1 -35 2 -37 31 -35 16 1 32 9 34 17 4 12 2 13 -10 3 -11 -10 -17
-10 -28 0 -10 10 -11 9 -5 -3 6 -12 5 -13 -5 -3 -10 9 -10 16 -2 26 7 9 8 17
2 23 -6 6 2 10 23 10 32 0 33 -1 34 -48 0 -32 -3 -45 -11 -41 -7 4 -6 1 1 -8
15 -19 16 -609 1 -609 -6 0 -8 6 -5 14 4 10 0 13 -14 11 -13 -3 -19 0 -16 8 2
7 11 11 20 9 10 -2 15 4 14 17 0 11 -5 17 -9 15 -5 -3 -6 -10 -3 -15 3 -5 -1
-6 -9 -3 -9 3 -13 11 -10 16 5 7 1 7 -12 0 -10 -5 -19 -21 -19 -35 -2 -19 3
-23 22 -21 12 1 23 -2 23 -7 0 -6 -6 -9 -12 -8 -32 4 -36 -3 -37 -56 0 -31 -2
-59 -4 -63 -10 -16 12 -52 28 -46 8 4 22 1 30 -6 9 -7 18 -10 22 -6 3 3 0 6
-8 6 -10 0 -11 2 -2 8 7 5 14 38 16 82 l4 74 32 2 c18 1 34 4 37 7 3 2 6 54 7
115 1 90 4 108 15 100 11 -9 11 -13 0 -19 -10 -7 -10 -9 2 -9 9 0 11 -3 5 -8
-5 -4 -12 -14 -13 -22 -2 -8 0 -12 4 -8 4 4 12 4 18 -2 18 -14 36 3 41 39 3
27 2 31 -11 20 -8 -6 -12 -19 -9 -29 3 -10 0 -17 -10 -17 -21 0 -13 37 13 58
21 16 22 24 20 217 -1 179 -3 200 -17 194 -14 -5 -14 -3 1 14 17 20 15 64 -4
64 -5 0 -4 -9 2 -21 15 -27 -5 -56 -27 -38 -7 7 -16 9 -20 5 -3 -3 -1 -6 5 -6
6 0 9 -7 5 -15 -3 -9 -8 -13 -12 -10 -6 6 -7 22 -11 163 -2 53 -6 72 -16 73
-8 1 -20 2 -26 3 -7 0 -13 7 -13 14 0 7 -7 17 -15 23 -11 8 -12 12 -2 16 6 2
12 9 12 14 0 6 -4 7 -10 4 -9 -6 -15 27 -11 68 2 14 -6 17 -39 17 -37 0 -41 3
-40 23 5 59 2 64 -38 62 l-37 -2 0 41 c0 35 -3 41 -22 41 -12 0 -25 3 -29 8
-12 12 -26 8 -18 -5 4 -8 3 -10 -2 -5 -5 5 -9 25 -9 45 0 33 -2 37 -25 35 -14
-1 -19 0 -12 3 7 3 17 14 22 25 8 15 7 17 -5 13 -8 -3 -12 -10 -9 -15 8 -14
-20 -11 -36 4 -12 10 -12 9 -1 -6 8 -9 11 -21 7 -24 -11 -11 -27 20 -20 37 15
39 17 46 5 30 -7 -10 -11 -11 -11 -2 0 7 -15 12 -40 12 l-40 0 0 40 0 40 -67
1 c-38 1 -71 1 -75 0 -5 0 -8 9 -8 21 0 19 -2 20 -10 8 -5 -8 -10 -10 -10 -4
0 6 7 17 15 24 8 7 13 15 10 19 -7 12 -391 19 -402 7 -3 -3 0 -14 8 -23 12
-16 12 -17 -2 -6 -18 15 -29 8 -29 -19 0 -10 -4 -18 -9 -18 -14 0 -8 34 9 47
12 9 12 14 3 22 -7 6 -11 8 -8 5 6 -8 -14 -34 -25 -34 -4 0 -10 10 -13 23 -5
20 -5 20 7 5 16 -22 29 -12 16 12 -6 12 -5 17 6 17 7 0 14 -3 14 -7 0 -13 51
-4 62 10 8 13 9 13 5 0 -3 -10 2 -16 14 -17 10 -1 19 3 19 9 0 7 4 7 13 0 14
-11 53 -10 64 3 5 4 2 5 -4 1 -7 -4 -13 -3 -13 3 0 5 6 12 13 14 9 4 9 6 -1 6
-7 1 -11 4 -8 9 2 4 -13 7 -34 7 -21 0 -36 -3 -34 -6 2 -4 -3 -9 -11 -13 -18
-6 -30 10 -13 18 7 2 2 3 -12 2 -15 -2 -25 -9 -25 -19 0 -8 -4 -19 -8 -23 -4
-4 -7 5 -7 19 0 15 -5 27 -11 27 -5 0 -8 -4 -5 -9z m51 -11 c3 -5 1 -10 -4
-10 -6 0 -11 5 -11 10 0 6 2 10 4 10 3 0 8 -4 11 -10z m93 1 c10 -6 10 -10 -3
-21 -12 -10 -19 -10 -27 -2 -8 8 -15 9 -25 1 -7 -7 -13 -7 -13 -2 0 6 10 15
23 21 28 13 29 13 45 3z m222 -77 c0 -8 -19 -13 -24 -6 -3 5 1 9 9 9 8 0 15
-2 15 -3z m-552 -22 c5 2 10 -1 11 -6 1 -5 -15 -10 -35 -12 -25 -1 -33 1 -23
7 8 5 10 9 6 9 -5 0 -5 5 -2 10 5 8 11 8 20 0 7 -6 17 -9 23 -8z m162 4 c0 -3
-4 -8 -10 -11 -5 -3 -10 -1 -10 4 0 6 5 11 10 11 6 0 10 -2 10 -4z m115 -5 c3
-5 2 -12 -3 -15 -5 -3 -9 1 -9 9 0 17 3 19 12 6z m221 -43 c4 -7 3 -8 -4 -4
-7 4 -12 2 -12 -3 0 -6 -5 -11 -11 -11 -8 0 -8 5 1 15 15 18 17 18 26 3z m11
-22 c-10 -8 -18 -18 -17 -23 1 -4 -7 -9 -17 -10 -15 -2 -15 -1 2 6 11 5 16 10
10 11 -10 1 24 30 34 30 3 0 -2 -7 -12 -14z m187 6 c3 -5 -1 -9 -9 -9 -8 0
-12 4 -9 9 3 4 7 8 9 8 2 0 6 -4 9 -8z m41 -30 c-3 -3 -11 0 -18 7 -9 10 -8
11 6 5 10 -3 15 -9 12 -12z m-112 -37 c-3 -9 -8 -14 -10 -11 -3 3 -2 9 2 15 9
16 15 13 8 -4z m39 -9 c7 4 8 2 4 -5 -9 -13 -26 -5 -25 12 0 9 2 8 6 -1 2 -6
10 -9 15 -6z m300 -330 c7 4 4 -2 -6 -14 -21 -24 -28 -22 -33 10 -3 17 -1 19
11 8 9 -6 21 -8 28 -4z m205 -111 c0 -8 -4 -15 -9 -15 -4 0 -8 7 -8 15 0 8 4
15 8 15 5 0 9 -7 9 -15z m133 -276 c0 -4 -9 -11 -20 -14 -11 -3 -20 -11 -20
-16 0 -6 7 -6 18 0 13 7 19 6 19 -2 0 -7 -15 -13 -35 -13 -19 -1 -29 2 -22 6
9 5 9 9 1 14 -19 12 -1 27 22 20 18 -5 20 -4 10 7 -7 7 -13 20 -13 28 0 11 4
10 20 -4 11 -10 20 -22 20 -26z m-6 -75 c3 -8 2 -12 -4 -9 -6 3 -10 10 -10 16
0 14 7 11 14 -7z m0 -32 c3 -5 -1 -9 -9 -9 -8 0 -12 4 -9 9 3 4 7 8 9 8 2 0 6
-4 9 -8z m-29 -140 c-17 -15 -18 -15 -6 0 7 9 9 23 5 30 -6 10 -4 11 7 0 11
-10 10 -15 -6 -30z m32 -15 c0 -7 -9 -14 -20 -14 -19 -2 -19 -2 -1 12 11 8 19
15 20 15 0 0 1 -6 1 -13z m-9 -69 c4 2 8 -4 8 -13 2 -13 1 -13 -3 0 -2 8 -8
13 -13 10 -5 -3 -14 5 -20 17 -11 22 -11 22 5 3 9 -11 19 -19 23 -17z m-28
-12 c0 -2 -7 -7 -16 -10 -8 -3 -12 -2 -9 4 6 10 25 14 25 6z m18 -28 c-2 -5
-8 -9 -13 -9 -5 0 -11 4 -13 9 -1 5 4 9 13 9 9 0 14 -4 13 -9z m-178 -177 c0
-6 -4 -12 -8 -15 -5 -3 -9 1 -9 9 0 8 4 15 9 15 4 0 8 -4 8 -9z"/>
<path d="M910 2660 c0 -6 7 -10 15 -10 8 0 15 2 15 4 0 2 -7 6 -15 10 -8 3
-15 1 -15 -4z"/>
<path d="M540 2640 c0 -5 7 -7 15 -4 8 4 15 8 15 10 0 2 -7 4 -15 4 -8 0 -15
-4 -15 -10z"/>
<path d="M2113 2635 c0 -8 4 -12 9 -9 5 3 6 10 3 15 -9 13 -12 11 -12 -6z"/>
<path d="M944 2625 c-10 -8 -14 -14 -9 -14 6 0 19 6 29 14 11 8 15 15 10 15
-6 0 -19 -7 -30 -15z"/>
<path d="M1255 2630 c-3 -6 1 -7 9 -4 18 7 21 14 7 14 -6 0 -13 -4 -16 -10z"/>
<path d="M1063 2593 c-3 -7 -10 -10 -17 -6 -8 4 -8 2 1 -7 6 -7 9 -19 6 -28
-4 -10 -2 -13 5 -8 7 4 12 3 12 -2 0 -4 13 -8 29 -8 17 0 28 3 26 7 -6 9 25
23 43 20 10 -2 11 2 3 17 -6 11 -8 22 -5 24 2 3 -19 5 -47 4 -32 0 -53 -5 -56
-13z m82 -5 c3 -3 -7 -15 -22 -29 -14 -13 -23 -19 -19 -12 3 6 2 14 -4 18 -5
3 -10 1 -10 -4 0 -6 -4 -11 -9 -11 -6 0 -9 40 -2 46 3 3 62 -4 66 -8z"/>
<path d="M1102 2578 c2 -5 8 -9 13 -9 5 0 11 4 13 9 1 5 -4 9 -13 9 -9 0 -14
-4 -13 -9z"/>
<path d="M1020 2591 c0 -7 -4 -10 -8 -7 -4 2 -14 1 -22 -5 -11 -6 -12 -9 -2
-9 8 0 10 -5 6 -12 -4 -7 4 -3 17 9 12 12 20 26 16 29 -4 4 -7 2 -7 -5z"/>
<path d="M2246 2578 c3 -5 10 -6 15 -3 13 9 11 12 -6 12 -8 0 -12 -4 -9 -9z"/>
<path d="M423 2564 c0 -7 4 -11 8 -8 4 2 10 -2 12 -8 4 -8 6 -7 6 3 1 9 -5 19
-12 22 -8 3 -14 -1 -14 -9z"/>
<path d="M460 2562 c0 -5 7 -9 15 -9 8 0 12 4 9 9 -3 4 -9 8 -15 8 -5 0 -9 -4
-9 -8z"/>
<path d="M975 2529 c-4 -6 -5 -12 -2 -15 2 -3 7 2 10 11 7 17 1 20 -8 4z"/>
<path d="M2126 2438 c3 -4 0 -8 -5 -8 -6 0 -11 -5 -11 -10 0 -6 8 -5 20 2 24
15 26 25 5 25 -8 0 -12 -4 -9 -9z"/>
<path d="M2180 2365 c-1 -5 -3 -18 -5 -28 -2 -9 0 -15 5 -12 4 3 10 -1 13 -9
3 -8 14 -13 24 -12 25 4 25 58 0 62 -9 1 -15 -2 -11 -7 3 -5 1 -9 -5 -9 -5 0
-12 6 -14 13 -3 6 -6 8 -7 2z m46 -28 c0 -13 -6 -24 -13 -24 -7 0 -11 3 -8 5
3 3 -3 11 -13 19 -15 11 -15 12 -1 7 10 -3 20 -1 24 5 9 16 11 14 11 -12z"/>
<path d="M1957 2353 c-10 -9 -9 -23 1 -23 5 0 9 7 9 15 0 17 -1 18 -10 8z"/>
<path d="M230 2280 c0 -5 5 -10 10 -10 6 0 10 5 10 10 0 6 -4 10 -10 10 -5 0
-10 -4 -10 -10z"/>
<path d="M2260 2275 c-8 -10 -9 -15 -2 -15 6 0 9 -8 6 -17 -5 -14 -4 -15 4 -4
8 11 11 10 15 -5 4 -16 5 -16 6 -2 0 9 -3 20 -9 23 -5 3 -10 11 -10 17 0 7 4
7 13 0 7 -6 18 -7 26 -3 9 6 10 11 2 15 -6 4 -11 2 -11 -5 0 -8 -3 -9 -14 0
-10 9 -16 8 -26 -4z"/>
<path d="M245 2240 c-4 -6 -11 -7 -17 -4 -7 4 -8 2 -4 -5 6 -9 11 -9 22 0 14
11 18 19 10 19 -3 0 -8 -5 -11 -10z"/>
<path d="M2300 2239 c0 -5 5 -7 10 -4 6 3 10 8 10 11 0 2 -4 4 -10 4 -5 0 -10
-5 -10 -11z"/>
<path d="M586 2194 c-3 -7 -2 -21 1 -33 3 -13 0 -23 -10 -26 -10 -4 -14 -19
-12 -50 1 -24 -2 -42 -7 -39 -4 3 -8 0 -8 -5 0 -6 6 -11 13 -11 8 0 7 -4 -3
-10 -8 -5 -10 -10 -4 -10 6 0 11 -6 11 -14 0 -14 -20 -16 -33 -4 -3 4 -12 4
-19 2 -7 -3 -16 -1 -20 5 -3 6 -11 11 -16 11 -16 0 18 -31 38 -35 10 -2 23 -4
28 -5 27 -6 31 4 30 73 0 83 5 95 40 91 14 -1 23 2 19 7 -3 5 -1 9 5 9 5 0 12
-6 15 -12 2 -7 4 -4 3 7 -2 11 -6 26 -10 33 -5 7 -4 12 2 12 6 0 11 4 11 8 0
13 -69 9 -74 -4z m48 -5 c-2 -4 1 -11 6 -14 7 -5 5 -12 -7 -20 -21 -15 -37 -9
-29 11 3 8 0 14 -7 14 -9 0 -9 2 1 8 16 11 43 11 36 1z"/>
<path d="M613 2168 c-2 -16 1 -18 10 -9 7 7 8 14 1 21 -6 6 -10 2 -11 -12z"/>
<path d="M1150 2200 c0 -5 5 -10 11 -10 5 0 7 5 4 10 -3 6 -8 10 -11 10 -2 0
-4 -4 -4 -10z"/>
<path d="M2820 2200 c-9 -6 -10 -10 -3 -10 6 0 15 5 18 10 8 12 4 12 -15 0z"/>
<path d="M1175 2181 c-3 -6 3 -9 14 -8 11 0 17 5 15 9 -7 11 -22 10 -29 -1z"/>
<path d="M2843 2175 c-3 -9 -3 -18 -1 -21 3 -3 8 4 11 16 6 23 -1 27 -10 5z"/>
<path d="M1143 2159 c-2 -23 3 -25 10 -4 4 8 3 16 -1 19 -4 3 -9 -4 -9 -15z"/>
<path d="M1188 2153 c7 -3 16 -2 19 1 4 3 -2 6 -13 5 -11 0 -14 -3 -6 -6z"/>
<path d="M1152 2134 c-10 -11 -13 -51 -13 -147 0 -87 -4 -136 -12 -146 -9 -11
-9 -13 0 -8 8 5 11 0 10 -13 -1 -22 -13 -27 -20 -7 -4 9 -6 9 -6 -1 -1 -7 6
-15 14 -18 24 -10 18 -21 -22 -40 -45 -22 -41 4 -42 -319 0 -266 2 -311 13
-322 5 -5 6 1 2 13 -4 15 -2 21 9 21 11 0 13 -6 9 -20 -6 -18 -5 -18 13 0 13
13 15 19 6 21 -7 2 -11 8 -8 13 4 5 1 9 -4 9 -6 0 -11 -5 -11 -11 0 -5 -5 -7
-10 -4 -18 11 -1 24 28 22 17 -1 28 -8 28 -17 1 -8 3 -41 4 -72 l3 -58 34 0
c32 0 33 -1 33 -40 l0 -40 46 0 c30 0 43 -4 38 -11 -4 -8 1 -9 17 -5 13 3 18
3 12 0 -7 -3 -13 -12 -13 -20 0 -9 5 -12 10 -9 6 3 14 -2 18 -12 7 -19 32 -30
32 -14 0 5 -6 12 -12 14 -10 4 -10 6 0 6 15 1 16 31 1 31 -5 0 -7 -5 -4 -10 3
-6 1 -10 -5 -10 -7 0 -9 7 -6 16 3 9 6 18 6 20 0 3 5 2 10 -1 6 -4 10 27 10
85 0 70 3 89 13 84 9 -6 9 -4 1 7 -13 16 -15 49 -2 49 4 0 8 5 8 11 0 5 -4 8
-8 5 -4 -2 -8 4 -8 14 0 10 5 16 11 14 6 -3 11 5 12 17 2 17 -1 18 -13 9 -8
-7 -14 -9 -14 -5 0 17 35 33 47 23 9 -7 13 -7 13 1 0 7 5 9 11 5 8 -4 7 -9 -2
-15 -12 -8 -11 -11 1 -19 13 -9 13 -10 0 -10 -12 0 -12 -2 -2 -9 11 -7 11 -9
-1 -14 -8 -3 -20 0 -27 6 -10 9 -11 9 -5 -2 6 -10 4 -12 -5 -6 -8 5 -11 4 -7
-3 4 -5 17 -9 30 -8 16 2 23 -3 24 -16 1 -10 -2 -18 -8 -18 -5 0 -9 -5 -9 -11
0 -5 5 -7 10 -4 6 4 10 3 9 -2 -1 -4 -1 -47 0 -95 l1 -88 40 0 c39 0 40 -1 40
-36 0 -19 -4 -33 -8 -30 -5 3 -9 -1 -9 -9 0 -8 4 -12 9 -9 4 3 8 -2 8 -10 0
-9 4 -16 10 -16 5 0 7 8 4 18 -4 10 -3 13 3 6 4 -6 21 -10 38 -8 16 2 25 0 20
-4 -13 -9 -20 -46 -7 -38 9 6 11 -2 14 -66 0 -24 3 -37 5 -30 3 6 10 9 16 5
18 -11 38 -12 31 -2 -3 5 2 9 10 9 9 0 16 4 16 8 0 12 -32 11 -47 -1 -18 -13
-17 7 0 22 10 8 17 7 25 -1 9 -9 12 -9 12 0 0 11 -13 16 -32 13 -5 0 -8 2 -8
7 0 4 45 8 101 9 97 2 129 11 129 37 0 6 -5 4 -10 -4 -8 -11 -10 -7 -8 18 2
35 7 38 27 20 11 -10 13 -10 7 0 -4 6 -2 12 3 12 6 0 11 -6 11 -12 0 -8 5 -6
10 4 6 9 11 50 12 91 3 75 3 76 30 75 19 -1 26 -6 25 -20 -1 -10 -5 -18 -10
-18 -5 0 -7 6 -4 14 4 9 0 13 -11 12 -9 -2 -18 -9 -20 -17 -3 -11 -1 -11 7 1
7 9 11 10 11 3 0 -6 -4 -14 -10 -18 -5 -3 -7 -12 -3 -21 5 -12 7 -12 19 3 10
13 13 14 11 3 -2 -8 -2 -12 0 -7 3 4 9 7 14 7 6 0 7 -6 3 -12 -4 -8 -3 -9 2
-5 12 12 13 89 0 106 -8 11 -8 13 2 7 8 -5 12 1 12 18 0 21 -5 26 -26 26 -17
0 -23 4 -19 13 4 6 -3 1 -14 -13 -16 -19 -20 -20 -14 -6 4 12 2 17 -3 13 -6
-3 -47 -7 -93 -9 -45 -1 -86 -7 -91 -13 -7 -8 -5 -12 5 -12 8 0 11 5 8 11 -4
6 1 5 10 -3 17 -13 14 -36 -4 -26 -5 4 -9 1 -9 -4 0 -6 5 -11 10 -11 6 0 10
-5 10 -12 0 -9 -3 -9 -12 0 -14 14 -32 16 -24 4 3 -5 -1 -9 -9 -9 -12 0 -12 3
-2 16 10 12 9 14 -4 9 -12 -5 -16 -1 -15 15 1 12 7 21 14 20 7 -2 12 2 12 7 0
6 -8 10 -19 10 -14 0 -18 -7 -17 -37 1 -39 1 -39 -55 -42 -14 0 -34 -8 -45
-16 -12 -10 -14 -14 -4 -12 8 2 11 2 7 -1 -4 -2 -3 -10 3 -17 8 -10 8 -15 -2
-21 -22 -14 -47 -14 -55 -1 -11 18 -13 67 -2 67 6 0 7 5 3 12 -4 7 -3 8 5 4 6
-4 8 -12 5 -18 -4 -6 -1 -8 7 -6 8 3 13 11 12 17 -2 6 2 11 7 11 6 0 10 -4 10
-10 0 -5 5 -10 10 -10 6 0 10 32 10 76 0 72 1 76 21 71 15 -4 19 -2 15 9 -4
11 -2 12 14 4 24 -13 40 -13 20 0 -8 5 -10 10 -4 10 8 0 12 68 13 229 l1 229
-27 6 c-17 5 -29 3 -34 -6 -5 -7 -9 -10 -10 -5 -5 28 -4 55 4 71 6 12 6 16 -1
12 -7 -4 -12 11 -14 41 l-3 48 -35 -3 c-33 -2 -36 0 -37 25 -1 34 -6 54 -16
71 -5 7 -4 12 2 12 6 0 3 8 -6 18 -10 10 -21 14 -24 9 -4 -5 -9 -4 -13 2 -4 6
-12 9 -17 6 -5 -4 -9 -1 -9 5 0 6 -4 8 -10 5 -5 -3 -10 -2 -10 4 0 5 5 13 11
16 7 5 5 13 -5 24 -9 10 -13 21 -9 26 5 4 -2 2 -14 -6 -13 -7 -25 -20 -28 -28
-4 -10 0 -9 15 4 25 23 26 11 1 -21 -22 -29 -29 -22 -25 24 2 32 2 32 -42 32
l-44 0 0 40 0 40 -47 1 c-27 1 -52 1 -57 0 -5 -1 -12 2 -15 7 -3 6 -12 4 -19
-4z m273 -144 c-10 -11 -20 -18 -23 -15 -7 6 18 35 31 35 5 0 2 -9 -8 -20z
m69 -45 c5 0 10 -12 12 -27 2 -21 -1 -27 -14 -25 -37 6 -44 19 -33 65 1 2 7 0
14 -5 6 -4 16 -8 21 -8z m-379 -210 c-39 -32 -55 -32 -18 0 15 13 33 24 38 24
6 0 -3 -11 -20 -24z m13 -19 c-22 -16 -23 -30 -2 -22 9 3 12 2 9 -5 -4 -5 -15
-7 -26 -4 -11 4 -19 2 -19 -4 0 -6 5 -11 12 -11 6 0 9 -3 5 -6 -3 -3 -13 -2
-22 3 -15 9 -13 13 15 36 17 15 35 27 38 27 4 0 -1 -7 -10 -14z m539 -81 c0
-8 -4 -12 -9 -9 -4 3 -8 9 -8 15 0 5 4 9 8 9 5 0 9 -7 9 -15z m-20 -42 c0 -9
-4 -10 -14 -2 -7 6 -13 12 -13 14 0 1 6 2 13 2 8 0 14 -6 14 -14z m23 -346 c9
3 7 -1 -5 -12 -16 -13 -17 -16 -3 -11 12 3 15 1 11 -9 -4 -12 -10 -11 -34 6
-30 21 -31 46 -1 30 9 -4 24 -6 32 -4z m-40 -48 c0 -5 -4 -9 -8 -9 -5 0 -9 7
-9 15 0 8 4 12 9 9 4 -3 8 -9 8 -15z m-65 -129 c-3 -5 -12 -10 -18 -10 -7 0
-6 4 3 10 19 12 23 12 15 0z m68 -295 c4 -8 3 -16 -1 -19 -4 -3 -9 4 -9 15 -2
23 3 25 10 4z"/>
<path d="M1464 1929 c1 -27 32 -34 32 -8 0 10 -2 16 -5 14 -2 -3 -10 0 -16 5
-9 7 -12 4 -11 -11z"/>
<path d="M1627 1239 c7 -7 15 -10 18 -7 3 3 -2 9 -12 12 -14 6 -15 5 -6 -5z"/>
<path d="M506 2114 c-8 -21 -8 -26 3 -20 4 3 17 -1 27 -10 18 -14 18 -15 -3
-5 -14 7 -24 8 -28 1 -3 -5 1 -10 9 -10 8 0 18 -4 21 -10 3 -5 0 -7 -8 -4 -8
3 -20 -2 -27 -11 -10 -12 -10 -18 0 -30 7 -9 15 -13 18 -10 3 3 11 0 18 -6 10
-8 13 -6 11 10 -1 12 -5 21 -10 21 -5 0 -4 6 2 14 17 21 22 57 10 75 -9 14
-10 14 -5 -1 3 -12 1 -15 -9 -11 -8 3 -12 9 -9 14 3 5 1 9 -4 9 -6 0 -13 -7
-16 -16z m17 -79 c4 -8 1 -17 -5 -21 -7 -4 -8 -3 -4 4 4 7 2 12 -4 12 -6 0 -8
5 -5 10 8 14 12 13 18 -5z"/>
<path d="M2792 2090 c0 -22 4 -40 9 -40 5 0 9 -7 9 -16 0 -8 -4 -12 -10 -9 -5
3 -10 1 -10 -5 0 -7 7 -10 18 -6 14 5 14 4 -2 -9 -13 -10 -15 -15 -6 -15 9 0
8 -5 -6 -16 -10 -8 -12 -12 -4 -8 8 4 23 14 33 22 16 14 17 14 11 -1 -8 -21 9
-22 26 -2 10 11 10 18 1 29 -9 11 -9 15 1 18 8 3 6 7 -6 11 -11 5 -15 3 -10
-5 5 -7 3 -8 -7 -3 -11 7 -12 6 -2 -6 10 -12 8 -17 -10 -29 -20 -12 -21 -11
-9 2 7 9 10 22 7 29 -3 8 4 20 16 27 12 8 18 9 14 3 -3 -6 -1 -11 4 -11 6 0
11 18 11 40 0 40 0 40 -39 40 -40 0 -40 0 -39 -40z m61 17 c3 -8 -1 -14 -8
-14 -7 0 -11 6 -8 14 3 7 6 13 8 13 2 0 5 -6 8 -13z m-2 -120 c-10 -9 -11 -8
-5 6 3 10 9 15 12 12 3 -3 0 -11 -7 -18z"/>
<path d="M288 2102 c-12 -15 -11 -16 5 -3 10 8 17 9 17 3 0 -6 -8 -16 -17 -22
-12 -7 -13 -10 -3 -7 8 2 24 -3 34 -12 16 -13 18 -13 11 -1 -18 29 -16 50 3
43 9 -3 14 -3 11 1 -14 15 -48 14 -61 -2z"/>
<path d="M440 2040 c0 -5 5 -10 11 -10 5 0 7 -5 3 -12 -4 -7 -3 -8 5 -4 9 6 9
11 0 22 -14 17 -19 18 -19 4z"/>
<path d="M2457 2039 c7 -7 15 -10 18 -7 3 3 -2 9 -12 12 -14 6 -15 5 -6 -5z"/>
<path d="M2430 2020 c0 -5 5 -10 10 -10 6 0 10 5 10 10 0 6 -4 10 -10 10 -5 0
-10 -4 -10 -10z"/>
<path d="M435 2000 c3 -6 1 -10 -6 -10 -7 0 -10 -3 -6 -6 3 -3 13 -2 22 4 16
8 16 9 1 15 -10 4 -15 3 -11 -3z"/>
<path d="M2455 2001 c-3 -5 0 -13 6 -17 7 -4 9 -3 5 4 -3 5 0 13 6 15 9 4 10
6 1 6 -6 1 -14 -3 -18 -8z"/>
<path d="M429 1970 c-6 -4 -10 -20 -9 -36 4 -58 1 -74 -15 -68 -8 4 -15 1 -15
-6 0 -6 5 -8 10 -5 6 3 14 -5 19 -18 8 -20 16 -24 40 -22 17 1 28 -1 25 -6 -3
-5 -10 -7 -15 -4 -5 4 -9 0 -9 -7 0 -10 -3 -9 -11 2 -9 13 -10 13 -6 -2 3 -9
1 -19 -6 -22 -8 -3 -8 -5 2 -5 11 -1 11 -4 0 -18 -7 -10 -9 -15 -4 -10 4 4 20
0 34 -10 24 -15 25 -15 12 0 -12 15 -9 20 9 19 3 0 7 48 8 108 l3 108 -30 4
c-17 2 -36 1 -42 -2z m36 -90 c3 -5 1 -10 -4 -10 -6 0 -11 5 -11 10 0 6 2 10
4 10 3 0 8 -4 11 -10z m-15 -40 c0 -5 -2 -10 -4 -10 -3 0 -8 5 -11 10 -3 6 -1
10 4 10 6 0 11 -4 11 -10z m34 2 c3 -5 -1 -9 -9 -9 -8 0 -12 4 -9 9 3 4 7 8 9
8 2 0 6 -4 9 -8z m2 -54 c-2 -19 -16 -38 -26 -38 -13 0 -5 31 11 41 18 11 18
11 15 -3z"/>
<path d="M1510 1960 c0 -5 5 -10 11 -10 5 0 7 5 4 10 -3 6 -8 10 -11 10 -2 0
-4 -4 -4 -10z"/>
<path d="M2722 1955 c-9 -11 -9 -15 -1 -15 8 0 7 -5 -2 -17 -12 -16 -12 -17 2
-6 9 7 19 10 22 6 4 -3 7 -1 7 5 0 7 3 11 8 11 25 -4 33 1 20 15 -11 12 -14
12 -21 0 -4 -8 -13 -14 -19 -14 -7 0 -6 5 2 15 16 19 -1 19 -18 0z"/>
<path d="M2873 1954 c0 -7 4 -11 8 -9 10 7 19 -22 13 -40 -4 -8 -11 -12 -17
-8 -6 3 -7 1 -3 -6 5 -7 13 -8 24 -2 12 7 23 5 37 -7 l20 -17 -20 24 c-15 18
-16 23 -5 19 12 -4 16 1 15 25 0 21 -6 31 -18 33 -15 2 -16 0 -5 -14 11 -14
10 -15 -5 -9 -10 4 -21 7 -23 7 -3 0 -3 4 0 8 3 5 -1 9 -8 9 -7 0 -13 -6 -13
-13z m67 -20 c0 0 -8 -8 -18 -17 -16 -15 -18 -15 -18 1 0 10 8 18 18 18 10 0
18 -1 18 -2z"/>
<path d="M237 1933 c-4 -3 -7 -11 -7 -17 0 -6 5 -5 12 2 6 6 9 14 7 17 -3 3
-9 2 -12 -2z"/>
<path d="M2274 1914 c1 -8 4 -15 7 -16 2 -2 3 -1 2 1 -2 2 2 9 7 16 7 8 5 12
-4 12 -8 0 -13 -6 -12 -13z"/>
<path d="M2780 1921 c0 -7 -5 -9 -12 -5 -7 5 -8 3 -3 -6 5 -9 2 -10 -11 -6
-11 3 -26 1 -34 -4 -10 -6 -11 -10 -2 -10 6 0 12 -5 12 -11 0 -5 -6 -7 -12 -3
-10 6 -10 4 0 -8 10 -13 10 -17 0 -20 -8 -3 -6 -7 6 -11 11 -5 15 -3 10 5 -5
7 -3 8 6 3 9 -6 11 -4 5 5 -5 9 -4 11 4 6 6 -4 9 -11 6 -16 -3 -4 -2 -10 2
-12 5 -1 -1 -13 -13 -25 -15 -16 -21 -18 -21 -8 0 8 4 15 9 15 5 0 6 5 3 10
-12 20 -22 9 -22 -25 0 -19 4 -32 8 -30 4 3 9 -2 12 -10 4 -10 1 -12 -11 -9
-9 3 -6 -1 7 -9 19 -11 20 -15 8 -20 -9 -3 -18 -2 -21 4 -2 5 -3 4 -2 -3 2 -7
11 -11 21 -10 17 3 17 2 4 -15 -7 -10 -18 -22 -24 -26 -6 -5 -3 -7 6 -4 12 4
17 -1 17 -19 0 -21 -3 -23 -17 -12 -14 12 -14 11 -2 -4 14 -19 33 -15 30 5 -4
36 17 45 43 19 9 -9 8 -15 -6 -25 -10 -8 -16 -20 -13 -28 4 -10 6 -9 6 4 1 10
6 15 11 12 6 -4 8 -11 4 -16 -3 -5 0 -17 7 -25 20 -25 -4 -40 -32 -20 -16 11
-19 16 -8 16 8 0 20 -5 27 -12 9 -9 12 -9 12 -1 0 20 -38 25 -67 8 -27 -15
-27 -16 -3 -10 l25 6 -24 -20 c-13 -12 -19 -21 -13 -21 6 0 17 7 26 15 21 21
28 19 22 -7 -3 -13 -3 -17 0 -11 3 8 15 11 30 7 18 -5 24 -3 22 7 -2 7 5 14
15 15 12 1 13 0 2 -3 -8 -2 -12 -9 -9 -14 3 -6 -3 -13 -15 -16 -23 -6 -22 -5
-25 -48 -1 -17 -7 -29 -14 -28 -6 2 -9 -4 -5 -13 4 -11 9 -12 16 -5 6 6 16 11
22 11 5 0 3 -5 -6 -10 -10 -6 -15 -20 -13 -35 1 -16 -3 -28 -12 -32 -8 -3 -11
-10 -7 -17 4 -8 3 -8 -6 0 -13 12 -51 8 -51 -5 0 -4 6 -13 13 -20 10 -11 10
-13 0 -7 -10 5 -13 -10 -14 -63 -2 -83 -2 -82 -13 -100 -7 -10 -6 -12 4 -6 10
6 12 4 7 -9 -4 -10 -7 -19 -7 -20 0 -1 -13 -1 -28 2 l-29 4 -1 -79 c-2 -70 -8
-88 -28 -83 -4 1 -11 -4 -15 -12 -7 -10 -9 -10 -9 0 0 6 -6 12 -14 12 -9 0
-14 -18 -15 -67 -1 -38 -3 -74 -3 -80 -1 -8 -16 -13 -40 -13 -38 0 -38 0 -38
-40 0 -40 0 -40 -38 -40 -31 0 -38 -4 -39 -20 -1 -11 4 -20 10 -20 8 0 8 -3
-1 -9 -8 -4 -13 -11 -13 -15 3 -19 -2 -22 -36 -22 -35 1 -37 -1 -39 -29 -1
-16 -2 -35 -3 -40 0 -6 -18 -10 -40 -8 -38 2 -38 2 -38 -35 1 -36 1 -37 -41
-40 -42 -3 -42 -3 -42 -44 l0 -40 -40 4 c-22 2 -40 1 -40 -3 0 -3 -17 -5 -37
-5 -33 1 -37 -2 -38 -27 -2 -27 8 -36 20 -17 4 6 11 8 16 5 5 -4 9 1 9 10 0 9
-4 14 -8 11 -4 -2 -14 0 -22 5 -11 7 -7 8 12 5 41 -7 49 -15 39 -34 -9 -17
-23 -19 -181 -26 -30 -2 -35 -5 -36 -26 -1 -14 -2 -30 -3 -37 0 -6 -19 -12
-43 -12 -287 -6 -273 -4 -274 -30 -1 -13 -8 -27 -15 -32 -10 -6 -7 -8 9 -6 13
1 21 6 18 13 -9 23 8 24 21 2 7 -13 12 -17 13 -9 0 11 3 11 15 1 12 -10 14 -8
10 9 -2 12 0 19 6 16 5 -4 7 -10 5 -14 -3 -4 8 -8 23 -8 20 0 28 4 24 14 -3 7
-10 10 -16 6 -6 -4 -7 -1 -2 7 6 9 2 10 -15 5 -14 -5 -20 -3 -16 3 3 5 22 10
42 9 20 -1 32 -3 25 -5 -14 -5 -15 -32 -1 -32 6 0 10 -5 10 -12 0 -6 -3 -8 -7
-5 -3 4 -12 2 -20 -4 -9 -9 -13 -8 -13 0 0 6 -5 11 -11 11 -5 0 -8 -4 -5 -8 3
-5 -120 -8 -274 -8 -217 1 -282 4 -292 14 -11 11 -10 16 4 26 10 7 14 17 10
22 -4 5 2 1 14 -9 11 -9 24 -14 27 -10 4 3 7 2 7 -3 0 -6 -5 -15 -12 -22 -9
-9 -9 -12 0 -12 7 0 12 5 12 11 0 5 4 7 10 4 5 -3 20 1 32 9 12 9 17 16 11 16
-7 0 -15 -5 -18 -10 -3 -6 -11 -10 -16 -10 -6 0 -7 4 -4 10 3 5 2 10 -4 10 -6
0 -8 8 -4 18 5 14 3 14 -11 -3 -13 -14 -16 -15 -13 -4 6 18 -21 22 -41 6 -8
-6 -12 -6 -12 1 0 9 -51 13 -202 15 -32 0 -38 4 -38 21 0 17 2 18 10 6 8 -13
10 -12 10 3 0 9 -5 17 -11 17 -5 0 -8 4 -4 9 8 14 -27 22 -99 24 -37 0 -63 5
-63 11 1 52 -2 56 -43 56 -41 0 -43 2 -42 50 0 24 -2 25 -79 28 l-79 3 0 -40
c0 -40 0 -40 42 -43 41 -3 43 -4 42 -35 l-1 -32 51 2 c47 2 51 0 52 -21 1 -12
-2 -25 -7 -27 -4 -3 -6 7 -3 22 3 15 2 24 -3 19 -4 -4 -8 -22 -8 -40 0 -30 3
-33 30 -33 126 -1 121 0 123 -40 2 -21 4 -38 5 -39 1 -2 34 -4 72 -5 78 -3 98
-9 69 -20 -17 -7 -17 -8 -1 -8 15 -1 22 -18 18 -43 0 -4 32 -7 72 -8 116 -2
147 -4 147 -12 0 -14 -21 -19 -35 -8 -9 8 -15 8 -15 2 0 -6 5 -12 11 -14 9 -3
9 -10 -1 -28 -9 -18 -4 -15 18 10 17 19 31 38 32 43 0 4 5 7 10 7 7 0 7 -6 0
-19 -12 -24 -13 -34 -1 -27 5 4 7 -4 5 -16 -2 -13 -2 -17 2 -10 3 6 10 12 15
12 6 0 7 -4 4 -10 -3 -5 1 -10 10 -10 9 0 13 5 9 11 -4 8 0 8 15 0 29 -16 420
-14 440 2 12 9 13 9 7 0 -5 -9 1 -13 23 -13 30 0 34 10 17 40 -5 8 -6 12 -1 8
4 -4 14 0 22 10 13 16 13 15 5 -3 -15 -36 -9 -49 25 -51 18 -1 32 2 31 5 0 3
0 21 1 39 1 27 5 32 27 32 17 0 23 -4 18 -13 -6 -9 -5 -9 7 0 8 7 43 13 77 14
41 1 59 6 55 13 -3 6 0 5 8 -1 18 -17 36 -16 43 2 3 9 0 15 -10 15 -9 0 -12
-5 -8 -12 5 -7 3 -8 -5 -4 -9 6 -8 13 5 27 9 10 13 19 8 19 -27 1 27 20 56 20
19 0 52 1 72 2 37 3 37 3 34 40 l-4 38 44 0 c46 0 45 -1 48 55 1 15 9 20 34
22 37 2 43 4 46 26 3 20 26 47 40 47 7 0 6 -4 -2 -9 -11 -7 -10 -9 3 -15 9 -3
13 -11 9 -17 -5 -8 -3 -9 6 -4 8 5 11 4 7 -2 -4 -6 -18 -9 -32 -8 -14 2 -25 0
-25 -4 0 -10 60 -12 61 -3 5 42 4 50 -4 45 -6 -3 -7 -1 -3 5 4 7 14 12 22 12
8 0 12 5 9 10 -3 6 -1 10 4 10 6 0 11 -4 11 -10 0 -5 11 -9 24 -8 21 2 24 7
21 35 -1 19 1 36 6 39 4 2 6 20 5 38 -3 28 -1 33 12 29 11 -5 13 -3 7 8 -8 12
-6 12 8 0 11 -9 17 -10 17 -2 0 6 5 11 12 11 6 0 4 -8 -6 -19 -10 -11 -25 -17
-34 -14 -10 3 -7 -2 6 -11 12 -10 20 -21 17 -26 -3 -4 3 -7 12 -6 18 3 19 6
22 109 1 42 2 43 38 45 21 2 38 4 40 5 1 2 3 29 4 60 1 32 6 60 10 63 5 2 6
11 3 19 -4 9 1 13 15 12 21 -1 35 -22 26 -37 -3 -5 -14 -7 -25 -5 -13 2 -18
-2 -17 -14 0 -10 7 -18 14 -18 6 0 10 4 7 9 -3 4 0 8 5 8 6 0 11 -5 11 -12 0
-6 3 -8 7 -5 6 7 9 36 14 130 2 26 7 51 12 54 5 3 3 9 -4 14 -11 7 -11 9 1 9
13 0 13 1 0 10 -10 7 -11 10 -2 11 6 1 17 3 22 4 6 1 19 3 30 4 17 1 19 10 22
84 2 66 6 81 18 79 13 -2 13 -1 -1 10 -18 16 -21 61 -2 54 7 -3 15 -1 18 4 4
7 13 7 24 1 16 -9 17 -5 17 40 0 27 -5 49 -10 49 -4 0 -4 6 2 13 6 7 10 69 10
147 0 123 -2 137 -21 158 -14 15 -16 22 -7 22 17 0 4 13 -16 16 -20 3 -14 -27
11 -50 20 -18 20 -18 -4 -4 -25 15 -34 39 -24 65 5 12 7 12 14 1 7 -10 9 -10
9 2 1 12 3 11 11 -2 11 -20 29 -24 29 -7 0 5 -4 7 -10 4 -5 -3 -10 -1 -10 4 0
6 5 11 10 11 6 0 10 4 10 10 0 5 -8 7 -17 3 -16 -6 -15 -3 2 18 11 13 13 18 5
12 -9 -7 -21 -8 -29 -4 -7 5 -24 7 -37 5 -16 -1 -24 2 -21 9 2 7 11 11 21 9 9
-2 16 2 16 8 0 7 7 5 15 -4 17 -17 42 -12 42 8 0 8 -12 12 -33 10 -19 -1 -39
4 -45 12 -6 8 -8 14 -3 14 5 0 2 5 -6 10 -12 7 -12 10 -1 10 7 0 11 6 8 14 -3
8 -1 17 6 20 9 3 8 5 -1 5 -7 1 -10 6 -6 13 4 6 3 8 -2 5 -6 -3 -16 4 -23 16
-11 18 -11 20 0 10 19 -19 28 -16 26 7 -1 11 -5 20 -10 20 -5 0 -4 7 3 15 7 9
10 18 6 22 -3 3 -6 1 -6 -6z m-16 -37 c9 -8 16 -18 16 -22 0 -3 -5 -1 -12 6
-9 9 -15 9 -27 -1 -14 -10 -14 -10 -3 5 10 13 10 17 0 21 -9 4 -9 6 -1 6 6 1
19 -6 27 -15z m12 -80 c-1 -8 -9 -20 -17 -25 -10 -6 -10 -9 -1 -9 6 0 11 -4
10 -9 -2 -5 6 -17 17 -26 11 -9 15 -14 8 -11 -6 4 -14 2 -18 -4 -11 -18 -21
-11 -23 18 -4 56 -3 65 10 73 17 11 17 11 14 -7z m-6 -127 c0 -7 -4 -6 -10 3
-8 12 -10 12 -10 1 0 -8 -3 -12 -6 -8 -9 9 6 28 17 22 5 -4 9 -12 9 -18z m34
1 c9 15 36 3 30 -13 -9 -21 -54 -6 -54 18 0 8 3 8 9 -2 6 -9 11 -10 15 -3z
m53 -170 c-3 -8 -6 -5 -6 6 -1 11 2 17 5 13 3 -3 4 -12 1 -19z m-28 -141 c8
-10 7 -14 -2 -14 -8 0 -14 6 -14 14 0 7 1 13 2 13 2 0 8 -6 14 -13z m25 -43
c-3 -28 -13 -45 -15 -26 -1 7 -2 18 -3 25 -1 9 11 26 20 27 1 0 0 -12 -2 -26z
m-43 -12 c-6 -2 -8 -9 -5 -14 4 -7 2 -8 -4 -4 -9 5 -8 12 1 27 7 12 13 15 16
7 2 -7 -1 -14 -8 -16z m16 -34 c-3 -8 -6 -5 -6 6 -1 11 2 17 5 13 3 -3 4 -12
1 -19z m-13 -14 c3 -7 12 -11 20 -8 8 3 17 1 21 -5 4 -7 -1 -9 -12 -5 -17 5
-17 5 0 -9 15 -13 17 -19 7 -34 -11 -17 -11 -17 -6 2 5 17 3 16 -14 -5 -16
-20 -19 -21 -13 -5 6 18 5 19 -13 5 -18 -14 -18 -14 -5 3 11 14 11 17 0 18
-10 0 -11 2 -1 6 6 2 9 10 5 16 -4 7 -8 17 -8 22 -1 6 -7 9 -14 7 -7 -1 -10 2
-6 7 7 13 32 4 39 -15z m-120 -182 c2 -4 -4 -8 -14 -8 -10 0 -16 4 -14 8 3 4
9 8 14 8 5 0 11 -4 14 -8z m-33 -45 c-10 -9 -11 -8 -5 6 3 10 9 15 12 12 3 -3
0 -11 -7 -18z m36 1 c-3 -8 -6 -5 -6 6 -1 11 2 17 5 13 3 -3 4 -12 1 -19z
m-102 -127 c-6 -5 -25 10 -25 20 0 5 6 4 14 -3 8 -7 12 -15 11 -17z m15 -33
c0 -4 -4 -8 -9 -8 -6 0 -12 4 -15 8 -3 5 1 9 9 9 8 0 15 -4 15 -9z m-163 -184
c-3 -3 -12 -4 -19 -1 -8 3 -5 6 6 6 11 1 17 -2 13 -5z m13 -29 c0 -2 -6 -8
-13 -14 -10 -8 -14 -7 -14 2 0 8 6 14 14 14 7 0 13 -1 13 -2z m-95 -55 c11 17
33 -7 30 -33 -3 -31 -3 -31 -18 -18 -8 6 -17 8 -20 4 -4 -3 -8 -1 -8 5 -3 22
-4 27 -14 42 -7 13 -6 13 7 2 12 -9 18 -10 23 -2z m-87 -105 c-3 -3 -9 2 -12
12 -6 14 -5 15 5 6 7 -7 10 -15 7 -18z m268 0 c0 -19 -3 -22 -13 -13 -10 8
-10 14 -2 24 15 18 15 18 15 -11z m-2003 -59 c3 3 11 3 17 -1 8 -5 8 -10 0
-20 -8 -10 -7 -14 2 -18 8 -2 9 -8 4 -13 -5 -5 -11 -4 -13 4 -3 6 -9 12 -14
12 -6 0 -8 -4 -5 -9 4 -5 -2 -8 -11 -7 -13 2 -18 12 -19 34 0 26 2 29 17 22 9
-5 19 -7 22 -4z m1897 -21 c0 -5 -5 -3 -10 5 -5 8 -10 20 -10 25 0 6 5 3 10
-5 5 -8 10 -19 10 -25z m-1785 -114 c3 -5 1 -12 -4 -16 -6 -3 -8 -12 -5 -19 3
-8 1 -17 -5 -21 -7 -4 -9 1 -5 12 5 17 5 17 -9 0 -8 -10 -18 -14 -21 -9 -3 6
1 13 10 16 8 3 12 10 9 16 -7 12 2 30 15 30 5 0 11 -4 15 -9z m1260 -36 c0
-24 -4 -29 -25 -30 -18 -1 -26 3 -26 16 0 10 4 15 8 13 12 -7 10 10 -2 22 -8
8 -2 11 17 9 24 -1 28 -5 28 -30z m-321 -64 c-13 -12 -21 -15 -26 -7 -12 18
-9 22 19 24 26 2 26 2 7 -17z m516 -5 c0 -2 -7 -7 -16 -10 -8 -3 -12 -2 -9 4
6 10 25 14 25 6z m30 -20 c0 -2 -11 -6 -25 -8 -13 -3 -22 -1 -19 3 5 9 44 13
44 5z m-389 -128 c11 -21 11 -22 -4 -9 -10 7 -17 17 -17 22 0 15 9 10 21 -13z
m-567 -27 c-2 -3 -12 3 -22 13 -16 17 -16 18 5 5 12 -7 20 -15 17 -18z m566
-17 c0 -3 -7 -1 -15 6 -8 7 -15 17 -15 22 0 5 7 3 15 -6 8 -8 15 -18 15 -22z"/>
<path d="M2806 1250 c5 -8 9 -18 9 -22 0 -5 4 -8 8 -9 18 -2 16 9 -5 27 -13
11 -18 13 -12 4z"/>
<path d="M2364 596 c-9 -10 -7 -16 7 -24 16 -10 18 -9 16 8 -4 26 -10 30 -23
16z"/>
<path d="M520 430 c9 -6 9 -9 -1 -12 -8 -3 -12 -8 -9 -11 3 -3 16 2 29 12 l24
19 -27 0 c-17 0 -23 -4 -16 -8z"/>
<path d="M630 299 c0 -5 5 -7 10 -4 6 3 10 8 10 11 0 2 -4 4 -10 4 -5 0 -10
-5 -10 -11z"/>
<path d="M1884 274 c-1 -18 1 -20 10 -11 16 14 16 34 2 34 -6 0 -12 -11 -12
-23z"/>
<path d="M2875 1920 c-3 -5 -1 -10 4 -10 6 0 11 5 11 10 0 6 -2 10 -4 10 -3 0
-8 -4 -11 -10z"/>
<path d="M364 1882 c3 -5 0 -13 -6 -15 -9 -4 -10 -6 -1 -6 17 -1 25 16 12 25
-7 4 -9 3 -5 -4z"/>
<path d="M1556 1882 c-3 -5 1 -9 9 -9 8 0 12 4 9 9 -3 4 -7 8 -9 8 -2 0 -6 -4
-9 -8z"/>
<path d="M2916 1867 c3 -10 9 -15 12 -12 3 3 0 11 -7 18 -10 9 -11 8 -5 -6z"/>
<path d="M2876 1859 c3 -5 10 -6 16 -3 8 5 9 1 5 -10 -4 -10 -3 -15 3 -11 6 3
10 1 10 -6 0 -7 3 -10 6 -6 9 9 -12 40 -30 43 -9 1 -14 -2 -10 -7z"/>
<path d="M370 1825 c-14 -7 -24 -16 -22 -19 7 -18 1 -166 -7 -161 -5 3 -13 1
-16 -5 -4 -6 -1 -9 6 -8 18 4 20 -59 2 -66 -8 -3 -24 -1 -35 5 -11 6 -22 8
-26 5 -3 -3 0 -6 8 -6 10 0 10 -4 -1 -17 -12 -14 -12 -16 0 -8 8 4 26 9 40 9
25 1 26 -2 27 -51 0 -29 -3 -53 -6 -53 -3 0 -6 -9 -7 -20 -1 -11 2 -18 7 -15
4 3 7 -3 6 -12 -2 -10 -8 -19 -14 -19 -25 -3 -27 -5 -12 -14 8 -5 11 -12 7
-16 -9 -10 -17 -1 -22 25 -2 11 -7 26 -11 33 -5 7 -3 8 6 3 9 -6 11 -4 5 5 -6
9 -4 11 6 5 11 -7 11 -5 -1 10 -13 17 -13 18 0 10 13 -8 13 -7 1 8 -12 15 -9
21 12 18 4 0 7 4 7 10 0 6 -7 9 -14 6 -10 -4 -13 -1 -9 8 3 8 9 12 14 9 5 -3
9 0 9 6 0 7 -8 9 -20 5 -11 -4 -20 -2 -20 4 0 6 5 11 12 11 6 0 9 2 6 5 -3 3
-13 3 -22 -1 -13 -5 -14 -9 -5 -20 9 -11 8 -14 -2 -14 -12 0 -12 -2 0 -9 7 -5
9 -11 4 -14 -14 -9 -10 -112 5 -109 7 1 12 -2 12 -8 0 -5 -7 -10 -16 -10 -12
0 -11 -5 7 -20 13 -10 19 -19 14 -20 -6 0 -17 6 -25 13 -12 10 -12 9 -2 -5 10
-13 10 -17 0 -21 -10 -4 -10 -6 0 -6 6 -1 12 -6 12 -12 0 -5 -4 -7 -10 -4 -15
9 -12 -1 4 -14 12 -10 14 -8 12 13 -3 25 18 43 29 26 4 -6 0 -10 -7 -10 -10 0
-10 -2 1 -9 11 -7 11 -9 0 -13 -8 -3 -10 -9 -6 -14 9 -10 28 16 21 28 -3 4 -1
8 5 8 13 0 12 -68 -1 -94 -7 -13 -7 -16 1 -12 8 5 11 -17 11 -73 0 -74 2 -81
20 -81 11 0 20 -4 20 -9 0 -6 -9 -8 -21 -6 -17 4 -19 2 -9 -10 10 -12 10 -15
-1 -15 -8 -1 -4 -6 9 -13 12 -7 20 -15 17 -18 -3 -3 1 -6 9 -6 12 0 11 5 -2
26 -12 18 -13 23 -3 17 10 -6 12 -5 7 2 -4 7 -2 12 4 12 6 0 8 6 4 13 -4 6 -3
8 1 4 9 -8 11 -25 17 -148 2 -58 4 -64 16 -48 7 11 18 19 24 19 6 0 4 -8 -5
-17 -13 -16 -13 -20 -1 -31 9 -8 14 -9 14 -2 0 6 5 8 12 4 7 -4 8 -3 4 5 -4 6
-12 8 -18 5 -6 -4 -8 -1 -6 7 3 8 12 13 19 11 11 -3 12 -1 2 9 -16 16 -17 29
-2 29 5 0 7 -4 4 -10 -3 -5 -2 -10 3 -10 6 0 10 -10 10 -22 -1 -13 1 -44 2
-70 l3 -48 39 0 c38 0 38 0 38 -40 l0 -40 40 0 40 0 0 -40 0 -40 40 0 c40 0
40 0 40 -39 0 -39 1 -40 38 -41 76 -2 87 -4 100 -19 10 -14 11 -14 5 3 -4 12
-3 17 4 13 5 -3 10 -20 11 -38 0 -17 2 -33 5 -35 2 -2 35 -5 73 -7 75 -3 96
-10 88 -31 -6 -15 -35 -16 -47 -1 -5 6 -7 4 -4 -5 2 -9 14 -15 30 -14 15 1 27
-2 27 -6 0 -4 17 -7 38 -8 20 0 94 -1 163 -2 129 -2 136 -4 114 -40 -8 -13 -7
-13 8 -1 9 7 15 17 12 21 -10 17 14 19 174 21 90 0 161 5 161 10 0 5 -6 8 -12
7 -7 -2 -13 3 -13 11 0 8 6 15 13 17 7 1 8 0 2 -3 -5 -2 -10 -9 -10 -14 0 -6
5 -7 10 -4 6 3 13 -1 16 -9 9 -24 21 -19 26 9 4 18 1 25 -11 25 -9 1 -2 7 14
14 17 7 36 10 44 6 16 -8 53 -1 47 9 -3 4 -1 13 4 20 9 15 30 6 30 -12 0 -8
-3 -8 -9 2 -6 9 -11 10 -15 2 -8 -13 18 -26 33 -17 6 4 7 14 4 24 -6 15 -5 16
13 2 17 -14 18 -14 6 2 -8 9 -11 21 -8 27 3 5 -1 12 -10 15 -12 5 -14 1 -10
-17 3 -12 3 -16 0 -9 -3 6 -10 10 -15 7 -5 -4 -6 0 -4 7 4 9 -2 14 -15 15 -11
1 -20 -3 -20 -9 0 -7 -4 -7 -12 0 -15 11 -54 10 -65 -3 -5 -4 -3 -5 3 -2 7 4
14 0 18 -8 6 -18 -10 -30 -18 -13 -3 7 -3 1 -1 -15 3 -26 2 -27 -36 -27 -29 0
-38 -3 -33 -12 6 -10 4 -10 -7 0 -9 9 -66 12 -211 12 -164 0 -198 2 -198 14 0
8 -8 13 -17 11 -10 -2 -22 -4 -26 -4 -5 -1 -6 -5 -3 -10 9 -14 -22 -7 -37 9
-9 10 -9 11 1 6 8 -5 11 0 8 16 -3 13 -5 26 -5 31 -1 4 -35 7 -76 7 -41 0 -75
4 -75 8 0 5 -11 15 -25 22 -17 9 -23 19 -20 30 4 12 0 17 -12 17 -86 0 -104 3
-102 21 5 52 0 60 -37 60 -19 0 -37 2 -39 4 -2 2 -5 20 -7 41 -2 36 -3 37 -40
37 -38 0 -38 0 -38 40 0 27 -4 40 -12 39 -7 -1 -25 -1 -40 0 -26 1 -28 4 -28
41 l0 40 -40 0 c-39 0 -41 1 -40 33 1 124 1 128 -17 126 -57 -5 -63 -1 -63 49
0 26 -1 77 -3 115 -2 66 -2 67 -27 63 -14 -2 -29 -5 -33 -5 -5 -1 -5 -6 -1
-12 5 -8 9 -8 14 1 5 8 9 7 13 -5 4 -9 3 -13 -2 -10 -14 8 -21 -9 -10 -25 5
-10 9 -11 9 -3 0 7 7 10 15 7 8 -4 12 -10 9 -15 -3 -5 -10 -7 -15 -4 -5 4 -9
0 -9 -7 0 -10 -2 -10 -9 0 -4 8 -12 13 -17 13 -5 -1 -10 137 -11 311 -1 172
-2 315 -3 317 0 2 -7 -2 -16 -9 -12 -11 -15 -11 -12 1 2 8 8 17 13 21 18 13
-8 8 -35 -7z m20 -45 c0 -5 -2 -10 -4 -10 -3 0 -8 5 -11 10 -3 6 -1 10 4 10 6
0 11 -4 11 -10z m-94 -325 c-1 -13 -4 -27 -7 -30 -5 -4 -4 41 0 53 4 10 8 -2
7 -23z m37 -121 c-14 -11 -14 -13 -2 -9 10 4 16 0 16 -10 0 -20 -16 -15 -33
11 -12 17 -11 19 12 20 23 2 24 1 7 -12z m152 -94 c3 -5 1 -10 -4 -10 -6 0
-11 5 -11 10 0 6 2 10 4 10 3 0 8 -4 11 -10z m52 -226 c-3 -3 -12 -4 -19 -1
-8 3 -5 6 6 6 11 1 17 -2 13 -5z m23 -14 c-24 -15 -36 -11 -14 4 10 8 21 12
24 10 2 -3 -2 -9 -10 -14z m3 -25 c-3 -9 -8 -14 -10 -11 -3 3 -2 9 2 15 9 16
15 13 8 -4z m-103 -109 c0 -2 -7 -9 -15 -16 -13 -11 -14 -10 -9 4 5 14 24 23
24 12z m347 -201 c0 -8 -4 -12 -9 -9 -5 3 -6 10 -3 15 9 13 12 11 12 -6z m-39
-12 c-6 -7 -12 -13 -13 -13 -2 0 -5 6 -8 13 -3 7 3 13 14 13 13 0 15 -3 7 -13z
m246 -159 c9 -3 16 -11 16 -16 0 -6 -6 -5 -15 2 -8 6 -20 8 -26 4 -8 -4 -9 -3
-5 4 8 14 9 14 30 6z m825 -55 c3 -11 1 -12 -10 -2 -12 10 -15 8 -16 -10 -2
-17 0 -19 7 -7 5 8 10 11 10 5 0 -5 9 1 20 15 l21 25 -13 -30 c-14 -35 -28
-54 -28 -38 0 7 -11 10 -27 7 -27 -5 -27 -5 -9 15 11 12 16 21 12 21 -4 0 -4
5 -1 11 9 13 27 7 34 -12z m-564 -39 c3 -5 1 -10 -4 -10 -6 0 -11 5 -11 10 0
6 2 10 4 10 3 0 8 -4 11 -10z m-150 -50 c4 -6 -1 -7 -11 -3 -13 5 -15 3 -9 -7
5 -9 4 -11 -4 -6 -6 4 -9 12 -6 17 8 12 22 12 30 -1z"/>
<path d="M1080 1814 c0 -6 7 -19 15 -30 8 -10 14 -14 14 -9 0 6 -6 19 -14 29
-8 11 -15 15 -15 10z"/>
<path d="M2504 1806 c-9 -10 -7 -15 7 -24 12 -8 19 -8 19 -2 0 5 -4 10 -10 10
-5 0 -7 7 -4 15 7 18 3 19 -12 1z"/>
<path d="M2353 1789 c-1 -10 2 -21 7 -24 10 -6 35 23 26 32 -14 14 -32 10 -33
-8z"/>
<path d="M1064 1779 c-3 -6 -2 -15 4 -21 6 -6 12 -6 17 3 6 8 4 10 -5 4 -10
-6 -12 -4 -7 8 7 19 2 23 -9 6z"/>
<path d="M1649 1733 c-1 -5 -1 -11 0 -15 0 -5 -3 -8 -8 -8 -5 0 -12 -8 -15
-17 -6 -14 -3 -14 15 3 19 16 22 17 16 2 -3 -10 -1 -20 5 -24 7 -5 8 -2 3 6
-6 10 -4 12 11 6 16 -6 15 -4 -4 17 -18 19 -20 26 -10 30 10 4 10 6 1 6 -7 1
-14 -2 -14 -6z"/>
<path d="M156 1698 c3 -5 10 -6 15 -3 13 9 11 12 -6 12 -8 0 -12 -4 -9 -9z"/>
<path d="M2350 1702 c0 -5 7 -9 15 -9 8 0 12 4 9 9 -3 4 -9 8 -15 8 -5 0 -9
-4 -9 -8z"/>
<path d="M280 1646 c0 -2 8 -10 18 -17 15 -13 16 -12 3 4 -13 16 -21 21 -21
13z"/>
<path d="M2760 1639 c0 -5 5 -7 10 -4 6 3 10 8 10 11 0 2 -4 4 -10 4 -5 0 -10
-5 -10 -11z"/>
<path d="M279 1607 c8 -9 16 -15 19 -12 3 3 12 -1 21 -8 14 -11 14 -10 2 6 -8
9 -16 15 -19 12 -3 -3 -12 1 -21 8 -14 11 -14 10 -2 -6z"/>
<path d="M2716 1597 c3 -10 9 -15 12 -12 3 3 0 11 -7 18 -10 9 -11 8 -5 -6z"/>
<path d="M2850 1600 c0 -5 5 -10 10 -10 6 0 10 5 10 10 0 6 -4 10 -10 10 -5 0
-10 -4 -10 -10z"/>
<path d="M2735 1508 c-4 -10 -10 -16 -14 -14 -4 3 -7 -11 -7 -30 0 -19 4 -34
9 -34 5 0 6 8 3 18 -5 14 -4 14 9 -2 9 -12 15 -15 15 -7 0 7 6 11 13 8 8 -3
12 5 12 24 1 15 -2 26 -6 23 -4 -2 -12 4 -18 13 -9 17 -10 17 -16 1z m24 -44
c-9 -11 -15 -12 -25 -3 -11 9 -12 15 -3 25 9 11 15 12 25 3 11 -9 12 -15 3
-25z"/>
<path d="M2736 1481 c-4 -5 -2 -12 3 -15 5 -4 12 -2 15 3 4 5 2 12 -3 15 -5 4
-12 2 -15 -3z"/>
<path d="M316 1458 c3 -5 10 -6 15 -3 13 9 11 12 -6 12 -8 0 -12 -4 -9 -9z"/>
<path d="M2724 1418 c-14 -22 -12 -68 2 -68 8 0 14 5 14 10 0 6 -5 10 -11 10
-5 0 -7 5 -3 11 4 8 11 5 18 -9 13 -24 32 -17 31 12 0 26 -40 52 -51 34z m36
-23 c7 -8 9 -15 6 -15 -4 0 -14 7 -22 15 -9 8 -11 15 -6 15 5 0 15 -7 22 -15z"/>
<path d="M995 1409 c-4 -6 -5 -12 -2 -15 2 -3 7 2 10 11 7 17 1 20 -8 4z"/>
<path d="M310 1402 c0 -5 7 -9 15 -9 8 0 12 4 9 9 -3 4 -9 8 -15 8 -5 0 -9 -4
-9 -8z"/>
<path d="M1014 1358 c-4 -7 -4 -10 1 -6 4 4 15 2 24 -5 14 -11 14 -10 2 6 -16
20 -18 21 -27 5z"/>
<path d="M50 1320 c8 -5 20 -10 25 -10 6 0 3 5 -5 10 -8 5 -19 10 -25 10 -5 0
-3 -5 5 -10z"/>
<path d="M35 1300 c-3 -5 -1 -10 4 -10 6 0 11 5 11 10 0 6 -2 10 -4 10 -3 0
-8 -4 -11 -10z"/>
<path d="M90 1299 c0 -5 5 -7 10 -4 6 3 10 8 10 11 0 2 -4 4 -10 4 -5 0 -10
-5 -10 -11z"/>
<path d="M67 1273 c5 -12 3 -14 -7 -8 -8 5 -11 4 -6 -3 7 -12 36 -5 36 8 0 4
-7 10 -14 13 -11 4 -13 1 -9 -10z"/>
<path d="M465 1280 c-3 -6 1 -7 9 -4 18 7 21 14 7 14 -6 0 -13 -4 -16 -10z"/>
<path d="M1405 1240 c1 -11 7 -26 13 -32 9 -9 10 -6 7 12 -6 31 -22 47 -20 20z"/>
<path d="M284 1199 c-4 -7 -3 -9 4 -5 5 3 13 0 15 -6 4 -9 6 -10 6 -1 1 17
-16 25 -25 12z"/>
<path d="M1396 1155 c-9 -26 -7 -32 5 -12 6 10 9 21 6 23 -2 3 -7 -2 -11 -11z"/>
<path d="M1925 1160 c-3 -6 1 -7 9 -4 18 7 21 14 7 14 -6 0 -13 -4 -16 -10z"/>
<path d="M1950 1149 c-17 -13 -18 -17 -5 -10 33 17 51 31 40 31 -5 0 -21 -10
-35 -21z"/>
<path d="M2673 1155 c0 -8 4 -12 9 -9 4 3 8 9 8 15 0 5 -4 9 -8 9 -5 0 -9 -7
-9 -15z"/>
<path d="M2838 1161 c11 -7 11 -9 -2 -14 -9 -4 -16 -1 -16 5 0 6 -3 9 -6 5
-14 -14 7 -27 27 -17 20 11 17 30 -4 30 -8 0 -8 -3 1 -9z"/>
<path d="M1975 1141 c-3 -5 0 -13 6 -17 7 -4 9 -3 5 4 -3 5 0 13 6 15 9 4 10
6 1 6 -6 1 -14 -3 -18 -8z"/>
<path d="M1410 1125 c0 -8 4 -15 10 -15 5 0 7 7 4 15 -4 8 -8 15 -10 15 -2 0
-4 -7 -4 -15z"/>
<path d="M1115 1120 c3 -5 8 -10 11 -10 2 0 4 5 4 10 0 6 -5 10 -11 10 -5 0
-7 -4 -4 -10z"/>
<path d="M2840 1120 c-8 -5 -10 -10 -5 -10 6 0 17 5 25 10 8 5 11 10 5 10 -5
0 -17 -5 -25 -10z"/>
<path d="M2414 1087 c2 -19 36 -63 36 -48 0 10 3 11 13 2 11 -8 13 -4 13 23
-1 33 -9 38 -33 23 -8 -5 -13 -4 -13 2 0 6 -4 11 -9 11 -5 0 -8 -6 -7 -13z
m56 -29 c0 -10 -29 -3 -43 11 -9 10 -8 11 6 6 11 -5 17 -2 17 6 0 11 3 11 10
-1 5 -8 10 -18 10 -22z"/>
<path d="M1710 1082 c0 -15 28 -23 36 -9 4 7 4 9 -1 5 -4 -4 -14 -3 -22 3 -8
7 -13 8 -13 1z"/>
<path d="M1575 1019 c-4 -6 -13 -8 -19 -6 -9 4 -12 -4 -11 -21 1 -20 7 -27 23
-28 29 -2 37 12 15 24 -14 9 -15 13 -4 26 7 9 11 16 8 16 -3 0 -9 -5 -12 -11z
m-10 -28 c3 -5 2 -12 -3 -15 -5 -3 -9 1 -9 9 0 17 3 19 12 6z"/>
<path d="M355 960 c3 -5 8 -10 11 -10 2 0 4 5 4 10 0 6 -5 10 -11 10 -5 0 -7
-4 -4 -10z"/>
<path d="M2240 913 c0 -24 1 -45 3 -46 1 -2 -5 -12 -13 -22 -12 -15 -12 -17
-1 -10 11 6 13 4 8 -8 -8 -21 15 -38 50 -35 22 1 29 7 30 22 0 12 3 42 6 67 6
58 1 65 -45 71 l-38 4 0 -43z m80 11 c0 -8 -19 -13 -24 -6 -3 5 1 9 9 9 8 0
15 -2 15 -3z m-34 -69 c-3 -23 -12 -26 -13 -5 -1 11 2 20 7 20 4 0 7 -7 6 -15z"/>
<path d="M1470 936 c0 -2 8 -10 18 -17 15 -13 16 -12 3 4 -13 16 -21 21 -21
13z"/>
<path d="M2356 925 c10 -8 23 -15 28 -15 6 0 1 7 -10 15 -10 8 -23 15 -28 15
-6 0 -1 -7 10 -15z"/>
<path d="M2735 918 c2 -9 -1 -20 -6 -23 -16 -11 -1 -22 28 -20 23 1 27 5 28
31 1 26 -3 30 -26 30 -21 0 -26 -4 -24 -18z m36 5 c0 -5 2 -15 4 -23 2 -11 -5
-16 -21 -16 -13 0 -20 4 -16 11 4 5 7 13 8 18 3 15 4 17 14 17 6 0 10 -3 11
-7z"/>
<path d="M2753 905 c0 -8 4 -12 9 -9 5 3 6 10 3 15 -9 13 -12 11 -12 -6z"/>
<path d="M1292 898 c2 -19 7 -26 20 -25 10 1 18 7 18 15 0 7 -4 11 -9 7 -6 -3
-14 3 -20 12 -9 15 -10 14 -9 -9z"/>
<path d="M606 898 c3 -5 10 -6 15 -3 13 9 11 12 -6 12 -8 0 -12 -4 -9 -9z"/>
<path d="M2336 901 c-3 -5 1 -14 8 -20 16 -13 32 2 21 19 -8 12 -22 13 -29 1z
m24 -11 c0 -5 -2 -10 -4 -10 -3 0 -8 5 -11 10 -3 6 -1 10 4 10 6 0 11 -4 11
-10z"/>
<path d="M2385 889 c-4 -6 -5 -12 -2 -15 2 -3 7 2 10 11 7 17 1 20 -8 4z"/>
<path d="M2195 860 c6 -10 4 -12 -11 -6 -15 6 -17 5 -6 -5 9 -9 15 -10 23 -2
8 8 7 13 -2 18 -8 6 -10 4 -4 -5z"/>
<path d="M1547 835 c-20 -14 -22 -41 -5 -51 8 -5 9 -2 5 10 -5 11 -3 15 5 10
8 -5 9 -2 5 9 -3 9 -2 19 3 22 4 3 7 -6 5 -21 -2 -19 1 -24 12 -19 11 4 13 1
9 -12 -6 -14 -5 -15 5 -6 10 10 9 15 0 27 -7 8 -10 19 -7 25 10 15 -18 20 -37
6z"/>
<path d="M2190 793 c0 -14 -2 -15 -9 -4 -7 11 -10 9 -16 -9 -5 -15 -2 -25 6
-31 11 -7 11 -9 1 -9 -7 0 -10 -5 -7 -10 8 -12 -35 -29 -54 -22 -9 3 -12 1 -7
-6 4 -7 3 -12 -3 -12 -5 0 -11 6 -14 13 -2 6 -4 -6 -3 -27 1 -22 7 -41 14 -44
6 -2 12 1 12 8 0 6 5 8 13 3 22 -13 33 -11 34 8 1 9 -5 23 -13 30 -8 7 -14 8
-13 3 3 -18 -1 -37 -8 -31 -3 4 -13 1 -22 -6 -14 -11 -14 -10 -2 6 11 14 11
17 0 17 -8 1 -3 7 11 14 14 8 28 12 33 9 4 -3 16 5 27 16 13 16 20 18 24 9 5
-10 7 -10 12 0 3 6 10 12 15 12 6 0 7 -4 4 -10 -3 -5 -1 -10 4 -10 6 0 11 7
11 15 0 8 -6 15 -12 15 -9 0 -8 4 2 10 12 8 13 11 1 19 -11 7 -11 9 0 14 8 3
4 6 -9 6 -13 1 -20 5 -17 11 3 6 1 10 -4 10 -6 0 -11 -8 -11 -17z m17 -38 c0
-8 -4 -12 -9 -9 -4 3 -8 9 -8 15 0 5 4 9 8 9 5 0 9 -7 9 -15z"/>
<path d="M1711 770 c0 -8 4 -22 9 -30 12 -18 12 -2 0 25 -6 13 -9 15 -9 5z"/>
<path d="M2663 766 c0 -7 6 -13 14 -13 7 0 13 4 13 8 0 4 -6 9 -13 12 -8 3
-14 0 -14 -7z"/>
<path d="M1745 760 c-3 -5 -1 -10 4 -10 6 0 11 5 11 10 0 6 -2 10 -4 10 -3 0
-8 -4 -11 -10z"/>
<path d="M1549 743 c-13 -16 -12 -17 4 -4 16 13 21 21 13 21 -2 0 -10 -8 -17
-17z"/>
<path d="M230 735 c5 -7 6 -16 2 -21 -4 -5 -3 -5 2 -1 15 12 15 34 0 34 -9 0
-11 -4 -4 -12z"/>
<path d="M1569 723 c-13 -16 -12 -17 4 -4 16 13 21 21 13 21 -2 0 -10 -8 -17
-17z"/>
<path d="M1750 730 c-9 -6 -10 -10 -3 -10 6 0 15 5 18 10 8 12 4 12 -15 0z"/>
<path d="M305 700 c-3 -6 1 -7 9 -4 18 7 21 14 7 14 -6 0 -13 -4 -16 -10z"/>
<path d="M206 662 c-3 -5 1 -9 9 -9 8 0 12 4 9 9 -3 4 -7 8 -9 8 -2 0 -6 -4
-9 -8z"/>
<path d="M283 638 c-11 -18 -10 -61 2 -73 13 -14 53 -16 60 -4 4 5 0 9 -7 9
-10 0 -9 3 2 9 8 6 17 8 20 6 4 -2 7 2 7 10 0 8 -4 12 -9 9 -4 -3 -8 2 -8 10
0 9 -5 16 -11 16 -5 0 -8 4 -5 8 3 5 -1 9 -9 9 -8 0 -12 -4 -10 -8 3 -4 -2
-10 -11 -13 -24 -9 -28 -7 -14 9 7 8 10 15 7 15 -3 0 -9 -6 -14 -12z m52 -29
c-4 -5 0 -9 7 -9 8 0 6 -5 -5 -11 -9 -6 -15 -14 -13 -18 3 -4 -1 -8 -8 -8 -8
0 -12 7 -9 14 3 8 2 13 -3 12 -25 -4 -26 3 -4 20 24 19 46 19 35 0z"/>
<path d="M317 613 c-10 -9 -9 -23 1 -23 5 0 9 7 9 15 0 17 -1 18 -10 8z"/>
<path d="M2035 609 c-4 -6 -5 -12 -2 -15 2 -3 7 2 10 11 7 17 1 20 -8 4z"/>
<path d="M2595 610 c-4 -6 -10 -8 -14 -6 -4 3 -8 -1 -8 -9 0 -10 4 -12 12 -5
7 5 14 8 17 5 2 -3 5 2 5 10 0 18 -3 19 -12 5z"/>
<path d="M388 583 c7 -3 16 -2 19 1 4 3 -2 6 -13 5 -11 0 -14 -3 -6 -6z"/>
<path d="M2005 559 c-3 -4 2 -6 10 -5 21 3 28 13 10 13 -9 0 -18 -4 -20 -8z"/>
<path d="M375 549 c-4 -5 -11 -7 -17 -3 -6 4 -8 -3 -6 -17 2 -13 9 -23 16 -21
8 1 11 -2 7 -8 -3 -6 -11 -8 -16 -5 -5 4 -9 -1 -9 -9 0 -17 39 -23 41 -6 1 6
2 14 3 19 0 5 4 13 8 16 4 4 5 -5 2 -20 -3 -18 -1 -26 7 -23 7 2 13 19 13 38
0 25 -6 35 -22 41 -12 5 -24 4 -27 -2z"/>
<path d="M1038 543 c19 -7 14 -23 -5 -16 -16 6 -16 5 -4 -10 19 -23 26 -21 29
8 1 18 -3 25 -16 24 -10 0 -12 -3 -4 -6z"/>
<path d="M479 538 c-5 -18 -6 -38 -1 -34 7 8 12 36 6 36 -2 0 -4 -1 -5 -2z"/>
<path d="M2061 524 c0 -11 3 -14 6 -6 3 7 2 16 -1 19 -3 4 -6 -2 -5 -13z"/>
<path d="M2036 493 c-6 -14 -5 -15 5 -6 7 7 10 15 7 18 -3 3 -9 -2 -12 -12z"/>
<path d="M2061 484 c0 -11 3 -14 6 -6 3 7 2 16 -1 19 -3 4 -6 -2 -5 -13z"/>
<path d="M2496 487 c3 -10 9 -15 12 -12 3 3 0 11 -7 18 -10 9 -11 8 -5 -6z"/>
<path d="M1236 453 c16 -12 12 -18 -9 -14 -5 1 -6 -3 -2 -8 9 -15 34 -2 32 18
0 9 -9 17 -20 17 -17 0 -17 -1 -1 -13z"/>
<path d="M1273 450 c1 -11 5 -20 9 -20 3 0 6 9 5 20 -1 11 -5 20 -9 20 -3 0
-6 -9 -5 -20z"/>
<path d="M1979 468 c-6 -20 -6 -39 0 -42 4 -3 7 6 7 20 0 20 -4 32 -7 22z"/>
<path d="M836 435 c-3 -8 -1 -15 4 -15 6 0 10 5 10 11 0 5 5 7 12 3 7 -4 8 -3
4 4 -10 16 -23 15 -30 -3z"/>
<path d="M868 416 c-10 -7 -18 -17 -18 -21 0 -4 6 -2 13 4 8 6 16 9 19 6 2 -3
5 2 5 10 0 8 -1 15 -1 15 -1 0 -9 -7 -18 -14z"/>
<path d="M1953 405 c0 -8 4 -12 9 -9 5 3 6 10 3 15 -9 13 -12 11 -12 -6z"/>
<path d="M2335 360 c-8 -13 9 -20 24 -11 10 6 9 10 -3 14 -8 3 -18 2 -21 -3z"/>
<path d="M990 341 c0 -6 4 -13 10 -16 6 -3 7 1 4 9 -7 18 -14 21 -14 7z"/>
<path d="M1450 299 c0 -5 5 -7 10 -4 6 3 10 8 10 11 0 2 -4 4 -10 4 -5 0 -10
-5 -10 -11z"/>
<path d="M2255 300 c-3 -5 -1 -10 4 -10 6 0 11 5 11 10 0 6 -2 10 -4 10 -3 0
-8 -4 -11 -10z"/>
<path d="M2275 280 c-16 -16 -27 -31 -24 -33 2 -2 19 11 37 29 18 19 29 34 24
34 -4 0 -21 -13 -37 -30z"/>
<path d="M870 287 c0 -9 -4 -17 -10 -17 -5 0 -10 -5 -10 -11 0 -8 4 -8 15 1 8
6 20 8 27 4 9 -5 8 -2 -2 12 -8 10 -16 21 -17 23 -2 2 -3 -3 -3 -12z"/>
<path d="M1395 261 c-3 -5 -2 -12 3 -15 5 -3 9 1 9 9 0 17 -3 19 -12 6z"/>
<path d="M1420 266 c0 -2 8 -10 18 -17 15 -13 16 -12 3 4 -13 16 -21 21 -21
13z"/>
<path d="M1493 255 c0 -8 4 -12 9 -9 5 3 6 10 3 15 -9 13 -12 11 -12 -6z"/>
<path d="M2286 254 c-5 -14 -4 -15 9 -4 17 14 19 20 6 20 -5 0 -12 -7 -15 -16z"/>
<path d="M1150 230 c0 -5 5 -10 11 -10 5 0 7 5 4 10 -3 6 -8 10 -11 10 -2 0
-4 -4 -4 -10z"/>
<path d="M1190 230 c0 -5 5 -10 11 -10 5 0 7 5 4 10 -3 6 -8 10 -11 10 -2 0
-4 -4 -4 -10z"/>
<path d="M1230 216 c7 -7 13 -7 20 0 6 6 3 10 -10 10 -13 0 -16 -4 -10 -10z"/>
<path d="M1295 220 c-3 -5 -1 -10 4 -10 6 0 11 5 11 10 0 6 -2 10 -4 10 -3 0
-8 -4 -11 -10z"/>
<path d="M1355 211 c-3 -5 -2 -12 3 -15 5 -3 9 1 9 9 0 17 -3 19 -12 6z"/>
<path d="M1457 205 c-4 -8 -3 -16 1 -19 4 -3 9 4 9 15 2 23 -3 25 -10 4z"/>
<path d="M706 202 c-3 -5 1 -9 9 -9 8 0 12 4 9 9 -3 4 -7 8 -9 8 -2 0 -6 -4
-9 -8z"/>
<path d="M1081 197 c-9 -12 -8 -16 3 -20 19 -7 32 11 19 24 -6 6 -14 5 -22 -4z"/>
<path d="M1175 180 c-3 -6 1 -7 9 -4 18 7 21 14 7 14 -6 0 -13 -4 -16 -10z"/>
<path d="M1295 180 c3 -5 8 -10 11 -10 2 0 4 5 4 10 0 6 -5 10 -11 10 -5 0 -7
-4 -4 -10z"/>
<path d="M829 123 c-13 -17 -13 -17 6 -3 11 8 22 16 24 17 2 2 0 3 -6 3 -6 0
-17 -8 -24 -17z"/>
<path d="M2036 93 c-6 -14 -5 -15 5 -6 7 7 10 15 7 18 -3 3 -9 -2 -12 -12z"/>
<path d="M835 90 c3 -5 8 -10 11 -10 2 0 4 5 4 10 0 6 -5 10 -11 10 -5 0 -7
-4 -4 -10z"/>
<path d="M1793 43 c4 -3 1 -13 -6 -22 -11 -14 -10 -14 6 -2 20 15 22 31 5 31
-6 0 -8 -3 -5 -7z"/>
<path d="M1114 22 c3 -5 0 -13 -6 -15 -8 -3 -6 -6 5 -6 19 -1 23 14 5 25 -6 4
-8 3 -4 -4z"/>
</g>
</svg>
