<?xml version="1.0" encoding="UTF-8"?>
<svg width="15px" height="20px" viewBox="0 0 15 20" version="1.1" xmlns="http://www.w3.org/2000/svg" xmlns:xlink="http://www.w3.org/1999/xlink">
    <!-- Generator: Sketch 55.2 (78181) - https://sketchapp.com -->
    <title>Icon/About</title>
    <desc>Created with Sketch.</desc>
    <g id="Icon/About" stroke="none" stroke-width="1" fill="none" fill-rule="evenodd">
        <g id="Group" fill-rule="nonzero">
            <path d="M12.7232143,12.455 L12.7232143,4.6875 L8.70535714,1.77635684e-15 L1.34107143,1.77635684e-15 C0.600357143,1.77635684e-15 6.21724894e-14,0.601428571 6.21724894e-14,1.34428571 L6.21724894e-14,16.7364286 C6.21724894e-14,17.4789286 0.596785714,18.0807143 1.3375,18.0807143 L8.20785714,18.0807143 C8.88321429,18.8982143 13.9157143,13.0646429 12.7232143,12.455 Z M7.7675,17.4107143 L1.33892857,17.4107143 C0.973928571,17.4107143 0.669285714,17.1121429 0.669285714,16.7439286 L0.669285714,1.33607143 C0.669285714,0.974285714 0.967857143,0.669285714 1.33607143,0.669285714 L8.03535714,0.669285714 L8.03535714,4.01357143 C8.03535714,4.76321429 8.63428571,5.35678571 9.37321429,5.35678571 L12.0532143,5.35678571 L12.0532143,12.1917857 C11.7339286,12.1014286 11.3971429,12.0532143 11.0485714,12.0532143 C9.01464286,12.0532143 7.36535714,13.7021429 7.36535714,15.7364286 C7.36535714,16.3392857 7.51035714,16.9082143 7.76678571,17.4107143 L7.76678571,17.4107143 L7.76678571,17.4107143 L7.7675,17.4107143 Z M8.70535714,1.00464286 L11.8525,4.68785714 L9.3725,4.68785714 C9.00678571,4.68785714 8.705,4.38535714 8.705,4.0125 L8.705,1.005 L8.70535714,1.00464286 Z" id="Shape" fill="#073949"></path>
            <g id="Group-4" transform="translate(4.866071, 9.732143)">
                <path d="M5,10 C2.23868215,10 0,7.76131785 0,5 C0,2.23868215 2.23868215,0 5,0 C7.76131785,0 10,2.23868215 10,5 C10,7.76131785 7.76131785,10 5,10 Z" id="Path" fill="#073949"></path>
                <polygon id="Path" fill="#FFFFFF" points="3.7 4.7 3.7 5.75229592 4.75229592 5.75229592 4.75229592 6.80459184 3.7 6.80459184 3.7 7.85688776 6.85688776 7.85688776 6.85688776 6.80459184 5.80459184 6.80459184 5.80459184 4.7"></polygon>
                <polygon id="Path" fill="#FFFFFF" points="4.2 2.2 4.2 3.2 5.2 3.2 5.2 2.2"></polygon>
            </g>
        </g>
    </g>
</svg>