<?xml version="1.0" encoding="UTF-8"?>
<svg width="120px" height="40px" viewBox="0 0 120 40" version="1.1" xmlns="http://www.w3.org/2000/svg" xmlns:xlink="http://www.w3.org/1999/xlink">
    <!-- Generator: Sketch 55.2 (78181) - https://sketchapp.com -->
    <title>Logo/FPO</title>
    <desc>Created with Sketch.</desc>
    <defs>
        <linearGradient x1="0%" y1="65.2343778%" x2="88.3384727%" y2="41.5070015%" id="linearGradient-1">
            <stop stop-color="#006699" offset="0%"></stop>
            <stop stop-color="#073949" offset="100%"></stop>
        </linearGradient>
        <linearGradient x1="17.1885621%" y1="86.4333451%" x2="75.1588083%" y2="29.6888097%" id="linearGradient-2">
            <stop stop-color="#006699" offset="0%"></stop>
            <stop stop-color="#073949" offset="100%"></stop>
        </linearGradient>
        <linearGradient x1="9.51610522%" y1="86.4333451%" x2="81.0418139%" y2="29.6888097%" id="linearGradient-3">
            <stop stop-color="#006699" offset="0%"></stop>
            <stop stop-color="#073949" offset="100%"></stop>
        </linearGradient>
        <linearGradient x1="0%" y1="72.904912%" x2="88.3384727%" y2="37.2307629%" id="linearGradient-4">
            <stop stop-color="#006699" offset="0%"></stop>
            <stop stop-color="#073949" offset="100%"></stop>
        </linearGradient>
        <linearGradient x1="42.0104754%" y1="7.61979244%" x2="50%" y2="100%" id="linearGradient-5">
            <stop stop-color="#6EB43F" offset="0%"></stop>
            <stop stop-color="#4B7B2B" offset="100%"></stop>
        </linearGradient>
        <linearGradient x1="100%" y1="13.6385928%" x2="0%" y2="86.3614072%" id="linearGradient-6">
            <stop stop-color="#6EB43F" offset="0%"></stop>
            <stop stop-color="#4B7B2B" offset="100%"></stop>
        </linearGradient>
    </defs>
    <g id="Logo/FPO" stroke="none" stroke-width="1" fill="none" fill-rule="evenodd">
        <g id="FPO_Logo-Copy" transform="translate(2.000000, 1.000000)">
            <g id="Group-3-Copy" fill-rule="nonzero">
                <path d="M0.696884512,23.9920927 C-2.07013128,14.0024146 3.64772022,3.60618588 13.507118,0.73816434 C23.3989409,-2.13928941 33.7137638,3.65069548 36.5459198,13.6704576 C36.7985299,14.5641555 36.9830796,15.4613181 37.1026812,16.3562592 C37.0935812,16.3234058 37.0843895,16.2905568 37.0751058,16.2577125 C34.2429498,6.23795044 23.9281268,0.447965539 14.036304,3.32541929 C5.02676769,5.94622278 -0.524437113,14.8533344 0.696884905,23.9920927 L0.696884512,23.9920927 Z" id="Path" fill="url(#linearGradient-1)"></path>
                <path d="M23.9264432,31.3874917 C29.6541212,27.5026317 31.8177035,19.8344715 28.7152583,13.3857387 C25.3281404,6.34528613 16.9468952,3.4243872 9.99522336,6.86172833 C9.98026596,6.86912421 9.96532737,6.87654349 9.95040761,6.88398611 C10.4759652,6.52752096 11.0315304,6.20290909 11.6157886,5.91401535 C18.5674605,2.47667421 26.9487057,5.39757314 30.3358236,12.4380257 C33.7156536,19.4633299 30.8457052,27.9358636 23.9264432,31.3874917 Z" id="Path" fill="url(#linearGradient-2)"></path>
                <path d="M9.63450574,8.34731482 C4.41080028,13.0700549 3.38279409,21.1095271 7.49347941,27.0592198 C11.8837724,33.4136088 20.4890606,35.0011061 26.809347,30.6630467 C26.3998912,31.0332347 25.9646569,31.3830445 25.5040978,31.7098721 C19.1678745,36.2062633 10.4377768,34.6500689 6.00487886,28.2340146 C1.57198094,21.8179603 3.11493105,12.9716753 9.4511544,8.47528415 C9.51205235,8.43206896 9.57317146,8.38941287 9.63450574,8.34731482 Z" id="Path" fill="url(#linearGradient-3)"></path>
                <path d="M1.40498047,26.8964634 C5.8597717,34.6631024 15.4313698,38.0339083 23.8095784,34.4279671 C32.8709185,30.5280093 37.1122891,19.9408881 33.3046321,10.7573312 C33.6781469,11.4085299 34.0156899,12.0906314 34.313542,12.8021147 C38.1637806,21.9992339 33.923667,32.6232616 24.8429834,36.5315448 C15.7622997,40.4398279 5.2797161,36.1523792 1.42947758,26.9552601 C1.42127581,26.9356684 1.41311076,26.9160703 1.40498047,26.8964644 L1.40498047,26.8964634 Z" id="Path" fill="url(#linearGradient-4)"></path>
                <g id="Group-Copy" transform="translate(18.834879, 19.406796) rotate(2.000000) translate(-18.834879, -19.406796) translate(12.716814, 10.332169)">
                    <path d="M4.41130907,16.7361008 C0.82087161,14.4717192 -0.555599532,11.5788324 0.281895639,8.05744013 C1.15100963,4.40310111 1.26070318,1.72500256 0.6109763,0.0231444774 C5.04886698,1.88145696 7.56364148,4.51128192 8.1552998,7.91261938 C8.68868975,10.9789825 7.8396653,13.7400968 5.60822641,16.1959622 C5.45450735,15.0136262 5.26784365,13.8749805 5.04823529,12.7800254 C4.76007904,11.343294 4.3880726,9.8465198 3.932216,8.28970254 C4.15764143,10.018905 4.3035967,11.5553981 4.37008181,12.8991817 C4.42603644,14.0301253 4.43977886,15.3090983 4.41130907,16.7361008 L4.41130907,16.7361008 Z" id="Path" fill="url(#linearGradient-5)"></path>
                    <path d="M6.08125529,17.3092153 C6.37649329,15.4242719 7.31088739,14.3502206 8.88443758,14.0870614 C10.5258598,13.8125514 11.6359525,13.3900754 12.2147157,12.8196338 C12.2392084,15.0074614 11.6108654,16.5230664 10.3296869,17.3664489 C9.15694161,18.1384511 7.86143622,18.2571923 6.44317071,17.7226724 C6.91828418,17.4384893 7.36865208,17.1486602 7.79427436,16.8531851 C8.33599257,16.4771142 8.88862599,16.0564908 9.45217463,15.5913153 C8.78036127,15.9951955 8.17454427,16.3322412 7.63472363,16.6024524 C7.18352855,16.8283015 6.66570577,17.0638891 6.08125529,17.3092153 L6.08125529,17.3092153 Z" id="Path" fill="url(#linearGradient-6)"></path>
                </g>
            </g>
            <g id="Group-3" transform="translate(42.882581, 3.289552)"></g>
        </g>
        <text id="FPO-Database" font-family="FrutigerLTStd-BoldCn, Frutiger LT Std" font-size="18" font-style="condensed" font-weight="bold" fill="#073949">
            <tspan x="44" y="17">FPO</tspan>
            <tspan x="44" y="35">Database</tspan>
        </text>
    </g>
</svg>