<?xml version="1.0" encoding="UTF-8"?>
<svg width="16px" height="14px" viewBox="0 0 16 14" version="1.1" xmlns="http://www.w3.org/2000/svg" xmlns:xlink="http://www.w3.org/1999/xlink">
    <!-- Generator: Sketch 55.2 (78181) - https://sketchapp.com -->
    <title>Icon/Camera</title>
    <desc>Created with Sketch.</desc>
    <g id="Page-1" stroke="none" stroke-width="1" fill="none" fill-rule="evenodd">
        <g id="Fpos-and-agencies-in-a-region-1" transform="translate(-1002.000000, -122.000000)" fill="#006699">
            <g id="Header">
                <g id="view-switcher" transform="translate(907.000000, 109.000000)">
                    <path d="M103.342857,23.6312925 C101.781014,23.6312925 100.514286,22.3444571 100.514286,20.7578231 C100.514286,19.1711891 101.781014,17.8843537 103.342857,17.8843537 C104.9047,17.8843537 106.171429,19.1711891 106.171429,20.7578231 C106.171429,22.3444571 104.9047,23.6312925 103.342857,23.6312925 L103.342857,23.6312925 Z M103.342857,16.9265306 C101.260086,16.9265306 99.5714286,18.6419918 99.5714286,20.7578231 C99.5714286,22.8736544 101.260086,24.5891156 103.342857,24.5891156 C105.425629,24.5891156 107.114286,22.8736544 107.114286,20.7578231 C107.114286,18.6419918 105.425629,16.9265306 103.342857,16.9265306 L103.342857,16.9265306 Z M109.942857,24.5891156 C109.942857,25.117834 109.520457,25.5469388 109,25.5469388 L97.6857143,25.5469388 C97.1652571,25.5469388 96.7428571,25.117834 96.7428571,24.5891156 L96.7428571,16.9265306 C96.7428571,16.3978122 97.1652571,15.9687075 97.6857143,15.9687075 L99.5714286,15.9687075 L100.042857,15.0108844 C100.376157,14.4539102 100.465257,14.0530612 100.985714,14.0530612 L105.7,14.0530612 C106.220457,14.0530612 106.309557,14.4539102 106.642857,15.0108844 L107.114286,15.9687075 L109,15.9687075 C109.520457,15.9687075 109.942857,16.3978122 109.942857,16.9265306 L109.942857,24.5891156 L109.942857,24.5891156 Z M109,15.0108844 L107.585714,15.0108844 L107.114286,14.0530612 C106.836614,13.4960871 106.691886,13.0952381 106.171429,13.0952381 L100.514286,13.0952381 C99.9938286,13.0952381 99.8212857,13.5521197 99.5714286,14.0530612 L99.1,15.0108844 L97.6857143,15.0108844 C96.6443286,15.0108844 95.8,15.868615 95.8,16.9265306 L95.8,24.5891156 C95.8,25.6470313 96.6443286,26.5047619 97.6857143,26.5047619 L109,26.5047619 C110.041386,26.5047619 110.885714,25.6470313 110.885714,24.5891156 L110.885714,16.9265306 C110.885714,15.868615 110.041386,15.0108844 109,15.0108844 L109,15.0108844 Z" id="Icon/Camera"></path>
                </g>
            </g>
        </g>
    </g>
</svg>