<?xml version="1.0" encoding="UTF-8"?>
<svg width="12px" height="12px" viewBox="0 0 12 12" version="1.1" xmlns="http://www.w3.org/2000/svg" xmlns:xlink="http://www.w3.org/1999/xlink">
    <!-- Generator: Sketch 55.2 (78181) - https://sketchapp.com -->
    <title>Icon/Active</title>
    <desc>Created with Sketch.</desc>
    <g id="Page-1" stroke="none" stroke-width="1" fill="none" fill-rule="evenodd">
        <g id="Tata-cornell/Table-view-1" transform="translate(-1140.000000, -622.000000)">
            <g id="Icon/Active" transform="translate(1140.000000, 622.000000)">
                <path d="M11.7519242,5.29888639 L10.9419195,4.2938805 C10.811908,4.12699771 10.7315846,3.92683892 10.7101681,3.71637711 L10.5676673,2.44286965 C10.5082069,1.91884087 10.0948953,1.50521829 9.57091143,1.4453638 L8.29665396,1.30286296 C8.07165264,1.28036283 7.8766515,1.18361226 7.71165053,1.05611152 L6.70814465,0.246856773 C6.29632777,-0.0822855909 5.71145328,-0.0822855909 5.29963639,0.246856773 L4.2946305,1.05686152 C4.12783204,1.18714194 3.92766608,1.26772824 3.71712712,1.28936288 L2.44361965,1.43186372 C1.91861657,1.49186407 1.50611415,1.90436649 1.4461138,2.42861956 L1.30361297,3.70287703 C1.28111284,3.92787835 1.18436227,4.12287949 1.05686152,4.28788046 L0.246856773,5.29063634 C-0.0822855909,5.70245322 -0.0822855909,6.28732771 0.246856773,6.6991446 L1.05686152,7.70415049 C1.18436227,7.86915146 1.26686275,8.0641526 1.28936288,8.28165387 L1.43186372,9.55516134 C1.49186407,10.0801644 1.90436649,10.4926668 2.42861956,10.5526672 L3.70287703,10.695168 C3.92787835,10.7176682 4.12287949,10.8144187 4.28788046,10.9419195 L5.29213635,11.7519242 C5.70463877,12.0811761 6.28889219,12.0811761 6.70064461,11.7519242 L7.7056505,10.9419195 C7.87065147,10.8144187 8.06565261,10.7319182 8.28315388,10.7094181 L9.55666135,10.5669173 C10.0816644,10.5069169 10.4941668,10.0944145 10.5541672,9.57016143 L10.696668,8.29590396 C10.7191682,8.07090264 10.8159187,7.8759015 10.9434195,7.71090053 L11.7534242,6.70664464 C12.0825666,6.29482776 12.0825666,5.70995327 11.7534242,5.29813638 L11.7519242,5.29888639 Z" id="Path" fill="#6EB43F"></path>
                <path d="M7.20632556,7.74466194 L7.20987587,7.74189058 C7.25910207,7.70390892 7.28802237,7.64636693 7.28802237,7.58326019 L7.28802237,2.78326019 C7.28802237,2.67280322 7.19847931,2.58326016 7.08802234,2.58326016 C6.97756538,2.58326016 6.88802232,2.67280322 6.88802232,2.78326019 L6.88802232,7.38743553 L5.28267339,7.38743553 C5.17221643,7.38743553 5.08267337,7.47697859 5.08267337,7.58743555 C5.08267337,7.69789251 5.17221643,7.78743558 5.28267339,7.78743558 L7.08267339,7.78743558 C7.12863803,7.78743558 7.17123363,7.77237387 7.20632556,7.74466194 Z" id="Combined-Shape" stroke="#FFFFFF" stroke-width="0.799999952" fill="#FFFFFF" transform="translate(6.185348, 5.185348) rotate(45.000000) translate(-6.185348, -5.185348) "></path>
            </g>
        </g>
    </g>
</svg>