<?xml version="1.0" encoding="UTF-8"?>
<svg width="20px" height="20px" viewBox="0 0 20 20" version="1.1" xmlns="http://www.w3.org/2000/svg" xmlns:xlink="http://www.w3.org/1999/xlink">
    <!-- Generator: Sketch 55.2 (78181) - https://sketchapp.com -->
    <title>Icon/Save</title>
    <desc>Created with Sketch.</desc>
    <g id="Page-1" stroke="none" stroke-width="1" fill="none" fill-rule="evenodd">
        <g id="Tata-cornell/Table-view-1" transform="translate(-1286.000000, -324.000000)" fill="#A2998B">
            <g id="Icon/Save" transform="translate(1286.000000, 324.000000)">
                <path d="M11.875,6.25 C12.22,6.25 12.5,5.970625 12.5,5.625 L12.5,3.125 C12.5,2.779375 12.22,2.5 11.875,2.5 C11.53,2.5 11.25,2.779375 11.25,3.125 L11.25,5.625 C11.25,5.970625 11.53,6.25 11.875,6.25 L11.875,6.25 Z M18.75,17.5 C18.75,18.19 18.19,18.75 17.5,18.75 L2.5,18.75 C1.81,18.75 1.25,18.19 1.25,17.5 L1.25,2.5 C1.25,1.81 1.81,1.25 2.5,1.25 L3.75,1.25 L3.75,7.5 C3.75,8.19 4.31,8.75 5,8.75 L15,8.75 C15.69,8.75 16.25,8.19 16.25,7.5 L16.25,1.25 L17.5,1.25 C18.19,1.25 18.75,1.81 18.75,2.5 L18.75,17.5 L18.75,17.5 Z M5,1.25 L15,1.25 L15,6.875 C15,7.220625 14.72,7.5 14.375,7.5 L5.625,7.5 C5.28,7.5 5,7.220625 5,6.875 L5,1.25 L5,1.25 Z M17.5,0 L2.5,0 C1.119375,0 0,1.119375 0,2.5 L0,17.5 C0,18.880625 1.119375,20 2.5,20 L17.5,20 C18.880625,20 20,18.880625 20,17.5 L20,2.5 C20,1.119375 18.880625,0 17.5,0 L17.5,0 Z" id="Fill-141"></path>
            </g>
        </g>
    </g>
</svg>