<svg xmlns="http://www.w3.org/2000/svg" width="22.696" height="9.696" viewBox="0 0 22.696 9.696">
  <g id="Group_2" data-name="Group 2" transform="translate(-580 -291.466)">
    <g id="Group_1" data-name="Group 1">
      <g id="Icon_Expand" data-name="Icon/Expand" transform="translate(580 291.466)">
        <g id="ElegantIcons-arrow-expand" transform="translate(4.848 0) rotate(45)">
          <path id="Shape" d="M.571,1.142A.572.572,0,0,0,0,1.713V6.287a.567.567,0,0,0,.162.4s0,0,0,.007,0,0,0,0a.568.568,0,0,0,.181.12.588.588,0,0,0,.219.043H5.143a.571.571,0,0,0,0-1.143H1.951L6.689.975A.571.571,0,0,0,5.881.167L1.143,4.905V1.713A.572.572,0,0,0,.571,1.142Z" transform="translate(0 0)" fill="#fff" fill-rule="evenodd"/>
          <path id="Shape-2" data-name="Shape" d="M.571,1.142A.572.572,0,0,0,0,1.713V6.287a.567.567,0,0,0,.162.4s0,0,0,.007,0,0,0,0a.568.568,0,0,0,.181.12.588.588,0,0,0,.219.043H5.143a.571.571,0,0,0,0-1.143H1.951L6.689.975A.571.571,0,0,0,5.881.167L1.143,4.905V1.713A.572.572,0,0,0,.571,1.142Z" transform="translate(0)" fill="#fff" fill-rule="evenodd"/>
        </g>
      </g>
      <g id="Icon_Expand-2" data-name="Icon/Expand" transform="translate(593 291.466)">
        <g id="ElegantIcons-arrow-expand-2" data-name="ElegantIcons-arrow-expand" transform="translate(9.696 4.848) rotate(135)">
          <path id="Shape-3" data-name="Shape" d="M.571,5.714A.572.572,0,0,1,0,5.143V.569a.567.567,0,0,1,.162-.4s0,0,0-.007,0,0,0,0A.568.568,0,0,1,.352.043.588.588,0,0,1,.571,0H5.143a.571.571,0,0,1,0,1.143H1.951L6.689,5.881a.571.571,0,0,1-.808.808L1.143,1.951V5.143A.572.572,0,0,1,.571,5.714Z" transform="translate(0)" fill="#fff" fill-rule="evenodd"/>
          <path id="Shape-4" data-name="Shape" d="M.571,5.714A.572.572,0,0,1,0,5.143V.569a.567.567,0,0,1,.162-.4s0,0,0-.007,0,0,0,0A.568.568,0,0,1,.352.043.588.588,0,0,1,.571,0H5.143a.571.571,0,0,1,0,1.143H1.951L6.689,5.881a.571.571,0,0,1-.808.808L1.143,1.951V5.143A.572.572,0,0,1,.571,5.714Z" transform="translate(0 0)" fill="#fff" fill-rule="evenodd"/>
        </g>
      </g>
    </g>
  </g>
</svg>
