<svg xmlns="http://www.w3.org/2000/svg" width="24.615" height="20" viewBox="0 0 24.615 20">
  <g id="Group_2" data-name="Group 2" transform="translate(-342 -368.998)">
    <g id="icon-twitter" transform="translate(342 368.998)">
      <g id="Group_1" data-name="Group 1" transform="translate(0 0)">
        <path id="Path_1" data-name="Path 1" d="M24.615,50.368a10.522,10.522,0,0,1-2.907.8,5.018,5.018,0,0,0,2.215-2.789,10.085,10.085,0,0,1-3.2,1.222,5.046,5.046,0,0,0-8.73,3.446,5.2,5.2,0,0,0,.123,1.151,14.284,14.284,0,0,1-10.4-5.279A5.046,5.046,0,0,0,3.266,55.66a4.983,4.983,0,0,1-2.282-.618V55.1a5.069,5.069,0,0,0,4.042,4.963,5.036,5.036,0,0,1-1.322.166,4.462,4.462,0,0,1-.955-.086,5.094,5.094,0,0,0,4.715,3.515A10.14,10.14,0,0,1,1.207,65.8,9.452,9.452,0,0,1,0,65.735,14.206,14.206,0,0,0,7.741,68,14.264,14.264,0,0,0,22.1,53.641c0-.223-.007-.438-.018-.652a10.067,10.067,0,0,0,2.529-2.62Z" transform="translate(0 -48)" fill="#fff"/>
      </g>
    </g>
  </g>
</svg>
