<svg xmlns="http://www.w3.org/2000/svg" width="20" height="20.004" viewBox="0 0 20 20.004">
  <g id="Group_1" data-name="Group 1" transform="translate(-251 -888.007)">
    <g id="icon-instagram" transform="translate(250.551 888.007)">
      <path id="Path_1" data-name="Path 1" d="M20.4,5.881a7.309,7.309,0,0,0-.465-2.427A5.124,5.124,0,0,0,17.006.528,7.328,7.328,0,0,0,14.579.063C13.508.012,13.168,0,10.452,0S7.4.012,6.33.059A7.312,7.312,0,0,0,3.9.524,4.881,4.881,0,0,0,2.129,1.68,4.925,4.925,0,0,0,.976,3.451,7.329,7.329,0,0,0,.511,5.877C.46,6.948.449,7.288.449,10S.46,13.06.507,14.127a7.309,7.309,0,0,0,.465,2.427A5.123,5.123,0,0,0,3.9,19.48a7.329,7.329,0,0,0,2.427.465c1.067.047,1.407.059,4.123.059s3.056-.012,4.123-.059A7.308,7.308,0,0,0,17,19.48a5.117,5.117,0,0,0,2.927-2.927,7.334,7.334,0,0,0,.465-2.427c.047-1.067.059-1.407.059-4.123s0-3.056-.051-4.123Zm-1.8,8.167a5.483,5.483,0,0,1-.344,1.856,3.318,3.318,0,0,1-1.9,1.9,5.5,5.5,0,0,1-1.856.344c-1.055.047-1.372.059-4.041.059s-2.989-.012-4.041-.059A5.48,5.48,0,0,1,4.56,17.8a3.078,3.078,0,0,1-1.149-.746,3.11,3.11,0,0,1-.746-1.149,5.5,5.5,0,0,1-.344-1.856c-.047-1.055-.059-1.372-.059-4.041s.012-2.989.059-4.041a5.48,5.48,0,0,1,.344-1.856,3.04,3.04,0,0,1,.75-1.149A3.105,3.105,0,0,1,4.564,2.22,5.506,5.506,0,0,1,6.42,1.876c1.055-.047,1.372-.059,4.041-.059s2.989.012,4.041.059a5.483,5.483,0,0,1,1.856.344,3.076,3.076,0,0,1,1.149.746,3.109,3.109,0,0,1,.746,1.149A5.505,5.505,0,0,1,18.6,5.971c.047,1.055.059,1.372.059,4.041s-.012,2.982-.059,4.037Zm0,0" fill="#fff"/>
      <path id="Path_2" data-name="Path 2" d="M130.115,124.5a5.166,5.166,0,1,0,5.166,5.166A5.167,5.167,0,0,0,130.115,124.5Zm0,8.517a3.351,3.351,0,1,1,3.351-3.351A3.352,3.352,0,0,1,130.115,133.017Zm0,0" transform="translate(-119.662 -119.662)" fill="#fff"/>
      <path id="Path_3" data-name="Path 3" d="M364.836,89.795a1.193,1.193,0,1,1-1.193-1.193A1.193,1.193,0,0,1,364.836,89.795Zm0,0" transform="translate(-347.844 -85.137)" fill="#fff"/>
    </g>
  </g>
</svg>
