<svg xmlns="http://www.w3.org/2000/svg" width="19.986" height="20" viewBox="0 0 19.986 20">
  <g id="Group_1" data-name="Group 1" transform="translate(-280 -891)">
    <g id="Group_1-2" data-name="Group 1" transform="translate(13.997 21)">
      <path id="icon-dribbble" d="M13.634,19.316l.049-.017C23.867,15.253,21.049,0,10.006,0a10,10,0,1,0,3.63,19.316ZM4.4,16.723A12.888,12.888,0,0,1,11.335,11a21.07,21.07,0,0,1,1.452,7.3A8.7,8.7,0,0,1,4.4,16.723Zm9.614,1.053a22.447,22.447,0,0,0-1.426-7.059,11.331,11.331,0,0,1,6.024.822,8.773,8.773,0,0,1-4.6,6.237Zm4.729-7.529a12.131,12.131,0,0,0-6.638-.694c-.3-.667-.607-1.308-.937-1.9a16.675,16.675,0,0,0,5.45-3.36,8.641,8.641,0,0,1,2.125,5.956ZM15.736,3.4a16.047,16.047,0,0,1-5.219,3.143A23.4,23.4,0,0,0,6.684,1.909,8.705,8.705,0,0,1,15.736,3.4ZM5.488,2.52A22.013,22.013,0,0,1,9.279,6.986,27.526,27.526,0,0,1,1.436,8.215a8.77,8.77,0,0,1,4.052-5.7ZM1.277,9.471A28.788,28.788,0,0,0,9.955,8.1c.313.549.611,1.148.9,1.77A14.539,14.539,0,0,0,3.5,15.835,8.64,8.64,0,0,1,1.277,9.471Z" transform="translate(266 870)" fill="#fff"/>
    </g>
  </g>
</svg>
