<?xml version="1.0" encoding="UTF-8"?>
<svg width="13px" height="15px" viewBox="0 0 13 15" version="1.1" xmlns="http://www.w3.org/2000/svg" xmlns:xlink="http://www.w3.org/1999/xlink">
    <!-- Generator: Sketch 55.2 (78181) - https://sketchapp.com -->
    <title>Icon/Download</title>
    <desc>Created with Sketch.</desc>
    <g id="Page-1" stroke="none" stroke-width="1" fill="none" fill-rule="evenodd">
        <g id="Tata-cornell/Table-view-1" transform="translate(-1002.000000, -121.000000)" fill-rule="nonzero">
            <g id="Group-5">
                <g id="view-switcher" transform="translate(907.000000, 109.000000)">
                    <g id="Icon/Download" transform="translate(95.000000, 13.000000)">
                        <path d="M10.8039026,5.00869565 L9.59999996,5.00869565 C9.24653774,5.00869565 8.96,4.72215791 8.96,4.36869569 L8.96,0.639999962 C8.96,0.286537743 8.67346226,5.62945074e-16 8.32000004,0 L4.47999996,0 C4.12653774,-6.73967376e-16 3.84,0.286537743 3.84,0.639999962 L3.84,4.36869569 C3.84,4.72215791 3.55346226,5.00869565 3.20000004,5.00869565 L1.99609736,5.00869565 C1.64263514,5.00869565 1.3560974,5.2952334 1.3560974,5.64869561 C1.3560974,5.82087248 1.42547125,5.98578709 1.54854913,6.10618936 L5.95245177,10.414355 C6.20120098,10.6576966 6.59879902,10.6576966 6.84754823,10.414355 L11.2514509,6.10618936 C11.5041177,5.8590153 11.5085705,5.4538142 11.2613964,5.20114738 C11.1409941,5.0780695 10.9760795,5.00869565 10.8039026,5.00869565 Z" id="Path" stroke="#216699" stroke-width="0.959999943" fill="#FFFFFF"></path>
                        <path d="M0.426666667,13.4 C0.426666667,13.7313708 0.695295817,14 1.02666667,14 L11.7733333,14 C12.1047042,14 12.3733333,13.7313708 12.3733333,13.4 C12.3733333,13.0686292 12.1047042,12.8 11.7733333,12.8 L1.02666667,12.8 C0.695295817,12.8 0.426666667,13.0686292 0.426666667,13.4 Z" id="Path" fill="#216699"></path>
                    </g>
                </g>
            </g>
        </g>
    </g>
</svg>