<svg xmlns="http://www.w3.org/2000/svg" width="96.925" height="91.274" viewBox="0 0 96.925 91.274">
  <g id="Group_1" data-name="Group 1" transform="translate(-459.079 -287.725)">
    <g id="telangana" transform="translate(270.516 -220.89)">
      <path id="Path_1" data-name="Path 1" d="M196.071,545.652l.355-.583-.992-.686.747-1.5-.613-.209,1.241-.4-.817-.393.635-.447.514.21-.079-1.61,1.079-.112.183.558,1.652-.6-.076-2.661.518-.684.6.5,1.068-2.71,2.2-.326-1.277-1.9-.86-.061.277-.9-.859.062.093-.724-1.042.021-.208-1.038.089-.737.744.236.114-1.115.952.261-.357-1,.572-.994-.248-.357.436-1.284.8-.264-.917-.372-.022-.4,1.843-.864,2.027,1.553.113.641.651-.287,1.838.407.567-2.1-.313-1.764,2.652-.986-.623-2.247.671-.3v-.715l-.864-1.3.337-.587,1.245-.528.47-1.492-.6-1.286-.939-.229.532-1.459.35.715,1,.087.282.948,1.644.443.372.514.677-.631,1.62.093,2.361,1.121,1.432-.265,1.272.451.276,2.255,1.2-.252,1.109.409.243,1.417-.544.735.8-.226.534.488,1.769.264,1.568,1.486.945-.157-.337-.527.624-.776.152-1.893,1.276.495.2.544,1.146-.126,2.123,1.628,1.511-1.13.206.628.954.359.872-1.572,2.106-.621.944.211.9,1.25,2.344,1.6.687,1.4-.235,2.282-.871,1.567.482,1.23-1.782,1.464.032,1.53,1.183-.28.385.565.094,3.581-.942.618.8,1.02,1.682.388,2.061,1.99.989-.435.646.448.271-.481,1.374-.45h0l1.556,2.889,2.964-.915,3.124,2.4.379,1.022,1.007.8-.165.366.744.227-.215.572.593,1.769.911,1.055-1.148.772.027,1.032,1.326.119.663-1.486.794.588-.4.211.289,1.422,2.338-.776-.622,1.907,1.852,6.371.861.075,1.8-1.45,1.977.885,2.741.121h0l1.559-.4.455.478,1.833-.547.888.273,1.086-1.345.529-.172.311.517,1.154-.7h0l.722.893-.218.45-4.307,2.313-.114.834L278.833,561l.434.44-.466.662-.167,1.975-1.629,1.9-.917.1-.987-.728-1.2,1.539-1.792-.049-.393,1.954-2.433.408-1.158.744-1.8-.47.167,1.2-.9-.008-.241,2.078-.552.548-2.234-.847-1.8.206.357-.71-2.02-1.094-1.341.656-.291,1.254-.753.724-.538-.17-.533-1.148-.587.457.454.925-.638.944,2.712,1.158.074-.669,1.944.471.054,1.144-.456.106-.218.962,1.037.8-.864.541-2.228-.59-.08-.55-1.107-.748-.56.84-.3-.953-.824-.349-.375-1.846-.82-1.191-1.275-.054-.4-.693-1.01,1.3-1.842.436-.76,1.262-.374.957.867.235.766.844-.456,1.488-1.879,2.239-1.174.092-.842-1.312-1.08.168-.741-.848-2.655,1.466-3.158.685-1.478,1.042-3.359.456-.854,1.156-.16,5.82-.881.488-3.049-.62-2.207.94-.42.442.106,1.662-.792-.108-.2-.93-.525-.079-.028,1.5-1.287,1.381-1.284-.065L218.41,593.4l-1.213.921-3.212-.532-1.872,1.122-1.247-.047-.391,2.212-1.213.619-.322,1.113h-.813l-.34.471-.961-.376-.574-1.244-.72.927-2.39-.794-1.852.662-1.74-.46-1.2.218-1.1-.762-2.029-.2h0l.014-1.761-.4-.614.39-1.579-.475-.265-.064-.927.567-1.4-.459-.022-.026-.551.286-.391.681.112.654-.759.53.235.027-1.1-2.033-.83-1.732.284-1.44-.369-1.22-.505-1.037-1.411,1.19-.121.1-.387,1.459.16.267-.577.758-.155-.5-1.028,1.522-.412.11-1.362-.763.2-.343-.547,1.014-.336.038-.732-.909-.055.3-1.491.7.087-.371-2.824.963-2.138-.77-2.1L192.1,570.33l.812-1.026-.386-.24,1.552-1.223-.429-.27.368-1.792,1,.358.6-.393.157-.7-.531-.505,1.306-.05.014-.538.783.218.007-.561.617-.132.258-.6-.1.481.752.182.034-.715-1.965-.59-.04-.657-.867.291-.44-.519-.54.706-.243-.554-1.048-.331.218-2.4,2.338-1.218.082-.373-1.287-.4.134-.412.316-.555.5.192.482-1.2.5.052-.241-.826.656.117.151-1.2.424.249.2-.5-.151-.522-1.128-.371-.974-.955,1.148-1-.059-1.148-.7-1.065.81-1.7Z" fill="rgba(0,0,0,0)" stroke="#fff" stroke-width="1"/>
    </g>
  </g>
</svg>
